M48
; DRILL file KiCad 10.0.6 date 2026-09-07T09:02:59
; FORMAT={-:-/ absolute / metric / decimal}
; #@! TF.CreationDate,2026-09-07T09:02:59-04:00
; #@! TF.GenerationSoftware,Kicad,Pcbnew,10.0.6
; #@! TF.FileFunction,MixedPlating,1,2
FMAT,2
METRIC
; #@! TA.AperFunction,Plated,PTH,ViaDrill
T1C0.300
; #@! TA.AperFunction,Plated,PTH,ComponentDrill
T2C0.800
; #@! TA.AperFunction,Plated,PTH,ComponentDrill
T3C1.000
; #@! TA.AperFunction,NonPlated,NPTH,ComponentDrill
T4C2.750
%
G90
G05
T1
X146.3Y-102.5
X146.3Y-104.5
X146.3Y-106.5
X149.7Y-102.5
X149.7Y-104.5
X149.7Y-106.5
T2
X104.0Y-132.0
X104.0Y-134.0
T3
X102.5Y-114.0
X102.5Y-122.0
X108.37Y-145.73
X108.37Y-148.27
X110.91Y-145.73
X110.91Y-148.27
X113.45Y-145.73
X113.45Y-148.27
X115.99Y-145.73
X115.99Y-148.27
X118.53Y-145.73
X118.53Y-148.27
X121.07Y-145.73
X121.07Y-148.27
X123.0Y-106.95
X123.0Y-109.49
X123.0Y-112.03
X123.0Y-114.57
X123.0Y-117.11
X123.0Y-119.65
X123.0Y-122.19
X123.0Y-124.73
X123.0Y-127.27
X123.0Y-129.81
X123.0Y-132.35
X123.0Y-134.89
X123.0Y-137.43
X123.0Y-139.97
X123.0Y-142.51
X123.0Y-145.05
X123.61Y-145.73
X123.61Y-148.27
X126.15Y-145.73
X126.15Y-148.27
X128.69Y-145.73
X128.69Y-148.27
X131.23Y-145.73
X131.23Y-148.27
X133.77Y-145.73
X133.77Y-148.27
X135.0Y-106.95
X135.0Y-109.49
X135.0Y-112.03
X135.0Y-114.57
X135.0Y-117.11
X135.0Y-119.65
X135.0Y-122.19
X135.0Y-124.73
X135.0Y-127.27
X135.0Y-129.81
X136.31Y-145.73
X136.31Y-148.27
X138.85Y-145.73
X138.85Y-148.27
X150.28Y-145.73
X150.28Y-148.27
X152.82Y-145.73
X152.82Y-148.27
X155.36Y-145.73
X155.36Y-148.27
X158.73Y-114.92
X158.73Y-117.46
X158.73Y-120.0
X158.73Y-122.54
X158.73Y-125.08
X161.27Y-114.92
X161.27Y-117.46
X161.27Y-120.0
X161.27Y-122.54
X161.27Y-125.08
T4
X103.5Y-103.5
X103.5Y-152.5
X161.5Y-103.5
X161.5Y-152.5
M30
