%TF.GenerationSoftware,KiCad,Pcbnew,10.0.6*%
%TF.CreationDate,2026-09-07T09:02:58-04:00*%
%TF.ProjectId,reticulum-hat,72657469-6375-46c7-956d-2d6861742e6b,v1.0*%
%TF.SameCoordinates,Original*%
%TF.FileFunction,Soldermask,Top*%
%TF.FilePolarity,Negative*%
%FSLAX46Y46*%
G04 Gerber Fmt 4.6, Leading zero omitted, Abs format (unit mm)*
G04 Created by KiCad (PCBNEW 10.0.6) date 2026-09-07 09:02:58*
%MOMM*%
%LPD*%
G01*
G04 APERTURE LIST*
G04 Aperture macros list*
%AMRoundRect*
0 Rectangle with rounded corners*
0 $1 Rounding radius*
0 $2 $3 $4 $5 $6 $7 $8 $9 X,Y pos of 4 corners*
0 Add a 4 corners polygon primitive as box body*
4,1,4,$2,$3,$4,$5,$6,$7,$8,$9,$2,$3,0*
0 Add four circle primitives for the rounded corners*
1,1,$1+$1,$2,$3*
1,1,$1+$1,$4,$5*
1,1,$1+$1,$6,$7*
1,1,$1+$1,$8,$9*
0 Add four rect primitives between the rounded corners*
20,1,$1+$1,$2,$3,$4,$5,0*
20,1,$1+$1,$4,$5,$6,$7,0*
20,1,$1+$1,$6,$7,$8,$9,0*
20,1,$1+$1,$8,$9,$2,$3,0*%
G04 Aperture macros list end*
%ADD10C,2.850000*%
%ADD11RoundRect,0.050000X-0.750000X-1.000000X0.750000X-1.000000X0.750000X1.000000X-0.750000X1.000000X0*%
%ADD12RoundRect,0.050000X-0.900000X-1.000000X0.900000X-1.000000X0.900000X1.000000X-0.900000X1.000000X0*%
%ADD13RoundRect,0.050000X-0.900000X-0.450000X0.900000X-0.450000X0.900000X0.450000X-0.900000X0.450000X0*%
%ADD14RoundRect,0.050000X-0.450000X-0.900000X0.450000X-0.900000X0.450000X0.900000X-0.450000X0.900000X0*%
%ADD15C,1.800000*%
%ADD16RoundRect,0.050000X-0.850000X-0.850000X0.850000X-0.850000X0.850000X0.850000X-0.850000X0.850000X0*%
%ADD17RoundRect,0.050000X0.575000X-0.150000X0.575000X0.150000X-0.575000X0.150000X-0.575000X-0.150000X0*%
%ADD18C,1.700000*%
%ADD19RoundRect,0.050000X0.800000X-0.800000X0.800000X0.800000X-0.800000X0.800000X-0.800000X-0.800000X0*%
%ADD20RoundRect,0.050000X-0.300000X-0.525000X0.300000X-0.525000X0.300000X0.525000X-0.300000X0.525000X0*%
%ADD21RoundRect,0.050000X-0.750000X-0.300000X0.750000X-0.300000X0.750000X0.300000X-0.750000X0.300000X0*%
%ADD22RoundRect,0.050000X-0.400000X-0.450000X0.400000X-0.450000X0.400000X0.450000X-0.400000X0.450000X0*%
%ADD23RoundRect,0.050000X-0.775000X0.300000X-0.775000X-0.300000X0.775000X-0.300000X0.775000X0.300000X0*%
G04 APERTURE END LIST*
D10*
%TO.C,*%
X103500000Y-103500000D03*
%TD*%
%TO.C,*%
X161500000Y-103500000D03*
%TD*%
%TO.C,*%
X103500000Y-152500000D03*
%TD*%
%TO.C,*%
X161500000Y-152500000D03*
%TD*%
D11*
%TO.C,J_SMA*%
X148000000Y-99500000D03*
D12*
X150500000Y-99500000D03*
X145500000Y-99500000D03*
%TD*%
D13*
%TO.C,U_LORA*%
X141000000Y-109000000D03*
X141000000Y-110270000D03*
D14*
X148000000Y-107000000D03*
D13*
X155000000Y-109000000D03*
X141000000Y-117730000D03*
X141000000Y-119000000D03*
X155000000Y-119000000D03*
X155000000Y-117730000D03*
X155000000Y-116460000D03*
X155000000Y-115190000D03*
X155000000Y-113920000D03*
X155000000Y-112650000D03*
%TD*%
D15*
%TO.C,J_PI*%
X108370000Y-145730000D03*
X108370000Y-148270000D03*
X110910000Y-145730000D03*
X110910000Y-148270000D03*
X113450000Y-145730000D03*
X113450000Y-148270000D03*
X115990000Y-145730000D03*
X115990000Y-148270000D03*
X118530000Y-145730000D03*
X118530000Y-148270000D03*
X121070000Y-145730000D03*
X121070000Y-148270000D03*
X123610000Y-145730000D03*
X123610000Y-148270000D03*
X126150000Y-145730000D03*
X126150000Y-148270000D03*
X128690000Y-145730000D03*
X128690000Y-148270000D03*
X131230000Y-145730000D03*
X131230000Y-148270000D03*
X133770000Y-145730000D03*
X133770000Y-148270000D03*
X136310000Y-145730000D03*
X136310000Y-148270000D03*
X138850000Y-145730000D03*
X138850000Y-148270000D03*
X150280000Y-145730000D03*
X150280000Y-148270000D03*
X152820000Y-145730000D03*
X152820000Y-148270000D03*
X155360000Y-145730000D03*
X155360000Y-148270000D03*
%TD*%
D16*
%TO.C,J_MCU_L*%
X123000000Y-106950000D03*
D15*
X123000000Y-109490000D03*
X123000000Y-112030000D03*
X123000000Y-114570000D03*
X123000000Y-117110000D03*
X123000000Y-119650000D03*
X123000000Y-122190000D03*
X123000000Y-124730000D03*
X123000000Y-127270000D03*
X123000000Y-129810000D03*
X123000000Y-132350000D03*
X123000000Y-134890000D03*
X123000000Y-137430000D03*
X123000000Y-139970000D03*
X123000000Y-142510000D03*
X123000000Y-145050000D03*
%TD*%
D16*
%TO.C,J_MCU_R*%
X135000000Y-106950000D03*
D15*
X135000000Y-109490000D03*
X135000000Y-112030000D03*
X135000000Y-114570000D03*
X135000000Y-117110000D03*
X135000000Y-119650000D03*
X135000000Y-122190000D03*
X135000000Y-124730000D03*
X135000000Y-127270000D03*
X135000000Y-129810000D03*
%TD*%
D16*
%TO.C,J_CRYPTO*%
X158730000Y-114920000D03*
D15*
X161270000Y-114920000D03*
X158730000Y-117460000D03*
X161270000Y-117460000D03*
X158730000Y-120000000D03*
X161270000Y-120000000D03*
X158730000Y-122540000D03*
X161270000Y-122540000D03*
X158730000Y-125080000D03*
X161270000Y-125080000D03*
%TD*%
D17*
%TO.C,J_USB*%
X99300000Y-118600000D03*
X101300000Y-118600000D03*
X103700000Y-117400000D03*
X105700000Y-117400000D03*
D18*
X102500000Y-122000000D03*
X102500000Y-114000000D03*
%TD*%
D19*
%TO.C,J_BAT*%
X104000000Y-134000000D03*
D18*
X104000000Y-132000000D03*
%TD*%
D20*
%TO.C,U_REG*%
X111050000Y-128650000D03*
X112000000Y-128650000D03*
X112950000Y-128650000D03*
X111050000Y-131350000D03*
%TD*%
D21*
%TO.C,U_CHG*%
X109400000Y-112095000D03*
X109400000Y-114635000D03*
X109400000Y-115905000D03*
X114600000Y-115905000D03*
X114600000Y-112095000D03*
%TD*%
D22*
%TO.C,Q_PWR*%
X111050000Y-121000000D03*
X112950000Y-121000000D03*
X112000000Y-123000000D03*
%TD*%
D23*
%TO.C,J_STEMMA*%
X158500000Y-135500000D03*
X158500000Y-136500000D03*
X158500000Y-137500000D03*
X158500000Y-138500000D03*
%TD*%
M02*
