%TF.GenerationSoftware,KiCad,Pcbnew,10.0.6*%
%TF.CreationDate,2026-09-07T09:02:58-04:00*%
%TF.ProjectId,reticulum-hat,72657469-6375-46c7-956d-2d6861742e6b,v1.0*%
%TF.SameCoordinates,Original*%
%TF.FileFunction,AssemblyDrawing,Top*%
%FSLAX46Y46*%
G04 Gerber Fmt 4.6, Leading zero omitted, Abs format (unit mm)*
G04 Created by KiCad (PCBNEW 10.0.6) date 2026-09-07 09:02:58*
%MOMM*%
%LPD*%
G01*
G04 APERTURE LIST*
%ADD10C,0.150000*%
G04 APERTURE END LIST*
D10*
X141952380Y-96407200D02*
X142095237Y-96454819D01*
X142095237Y-96454819D02*
X142333332Y-96454819D01*
X142333332Y-96454819D02*
X142428570Y-96407200D01*
X142428570Y-96407200D02*
X142476189Y-96359580D01*
X142476189Y-96359580D02*
X142523808Y-96264342D01*
X142523808Y-96264342D02*
X142523808Y-96169104D01*
X142523808Y-96169104D02*
X142476189Y-96073866D01*
X142476189Y-96073866D02*
X142428570Y-96026247D01*
X142428570Y-96026247D02*
X142333332Y-95978628D01*
X142333332Y-95978628D02*
X142142856Y-95931009D01*
X142142856Y-95931009D02*
X142047618Y-95883390D01*
X142047618Y-95883390D02*
X141999999Y-95835771D01*
X141999999Y-95835771D02*
X141952380Y-95740533D01*
X141952380Y-95740533D02*
X141952380Y-95645295D01*
X141952380Y-95645295D02*
X141999999Y-95550057D01*
X141999999Y-95550057D02*
X142047618Y-95502438D01*
X142047618Y-95502438D02*
X142142856Y-95454819D01*
X142142856Y-95454819D02*
X142380951Y-95454819D01*
X142380951Y-95454819D02*
X142523808Y-95502438D01*
X142952380Y-96454819D02*
X142952380Y-95454819D01*
X142952380Y-95454819D02*
X143285713Y-96169104D01*
X143285713Y-96169104D02*
X143619046Y-95454819D01*
X143619046Y-95454819D02*
X143619046Y-96454819D01*
X144047618Y-96169104D02*
X144523808Y-96169104D01*
X143952380Y-96454819D02*
X144285713Y-95454819D01*
X144285713Y-95454819D02*
X144619046Y-96454819D01*
X144714285Y-96550057D02*
X145476189Y-96550057D01*
X145714285Y-95931009D02*
X146047618Y-95931009D01*
X146190475Y-96454819D02*
X145714285Y-96454819D01*
X145714285Y-96454819D02*
X145714285Y-95454819D01*
X145714285Y-95454819D02*
X146190475Y-95454819D01*
X147047618Y-96454819D02*
X147047618Y-95454819D01*
X147047618Y-96407200D02*
X146952380Y-96454819D01*
X146952380Y-96454819D02*
X146761904Y-96454819D01*
X146761904Y-96454819D02*
X146666666Y-96407200D01*
X146666666Y-96407200D02*
X146619047Y-96359580D01*
X146619047Y-96359580D02*
X146571428Y-96264342D01*
X146571428Y-96264342D02*
X146571428Y-95978628D01*
X146571428Y-95978628D02*
X146619047Y-95883390D01*
X146619047Y-95883390D02*
X146666666Y-95835771D01*
X146666666Y-95835771D02*
X146761904Y-95788152D01*
X146761904Y-95788152D02*
X146952380Y-95788152D01*
X146952380Y-95788152D02*
X147047618Y-95835771D01*
X147952380Y-95788152D02*
X147952380Y-96597676D01*
X147952380Y-96597676D02*
X147904761Y-96692914D01*
X147904761Y-96692914D02*
X147857142Y-96740533D01*
X147857142Y-96740533D02*
X147761904Y-96788152D01*
X147761904Y-96788152D02*
X147619047Y-96788152D01*
X147619047Y-96788152D02*
X147523809Y-96740533D01*
X147952380Y-96407200D02*
X147857142Y-96454819D01*
X147857142Y-96454819D02*
X147666666Y-96454819D01*
X147666666Y-96454819D02*
X147571428Y-96407200D01*
X147571428Y-96407200D02*
X147523809Y-96359580D01*
X147523809Y-96359580D02*
X147476190Y-96264342D01*
X147476190Y-96264342D02*
X147476190Y-95978628D01*
X147476190Y-95978628D02*
X147523809Y-95883390D01*
X147523809Y-95883390D02*
X147571428Y-95835771D01*
X147571428Y-95835771D02*
X147666666Y-95788152D01*
X147666666Y-95788152D02*
X147857142Y-95788152D01*
X147857142Y-95788152D02*
X147952380Y-95835771D01*
X148809523Y-96407200D02*
X148714285Y-96454819D01*
X148714285Y-96454819D02*
X148523809Y-96454819D01*
X148523809Y-96454819D02*
X148428571Y-96407200D01*
X148428571Y-96407200D02*
X148380952Y-96311961D01*
X148380952Y-96311961D02*
X148380952Y-95931009D01*
X148380952Y-95931009D02*
X148428571Y-95835771D01*
X148428571Y-95835771D02*
X148523809Y-95788152D01*
X148523809Y-95788152D02*
X148714285Y-95788152D01*
X148714285Y-95788152D02*
X148809523Y-95835771D01*
X148809523Y-95835771D02*
X148857142Y-95931009D01*
X148857142Y-95931009D02*
X148857142Y-96026247D01*
X148857142Y-96026247D02*
X148380952Y-96121485D01*
X149047619Y-96550057D02*
X149809523Y-96550057D01*
X150047619Y-96454819D02*
X150047619Y-95454819D01*
X150047619Y-95454819D02*
X150380952Y-96169104D01*
X150380952Y-96169104D02*
X150714285Y-95454819D01*
X150714285Y-95454819D02*
X150714285Y-96454819D01*
X151333333Y-96454819D02*
X151238095Y-96407200D01*
X151238095Y-96407200D02*
X151190476Y-96359580D01*
X151190476Y-96359580D02*
X151142857Y-96264342D01*
X151142857Y-96264342D02*
X151142857Y-95978628D01*
X151142857Y-95978628D02*
X151190476Y-95883390D01*
X151190476Y-95883390D02*
X151238095Y-95835771D01*
X151238095Y-95835771D02*
X151333333Y-95788152D01*
X151333333Y-95788152D02*
X151476190Y-95788152D01*
X151476190Y-95788152D02*
X151571428Y-95835771D01*
X151571428Y-95835771D02*
X151619047Y-95883390D01*
X151619047Y-95883390D02*
X151666666Y-95978628D01*
X151666666Y-95978628D02*
X151666666Y-96264342D01*
X151666666Y-96264342D02*
X151619047Y-96359580D01*
X151619047Y-96359580D02*
X151571428Y-96407200D01*
X151571428Y-96407200D02*
X151476190Y-96454819D01*
X151476190Y-96454819D02*
X151333333Y-96454819D01*
X152523809Y-95788152D02*
X152523809Y-96454819D01*
X152095238Y-95788152D02*
X152095238Y-96311961D01*
X152095238Y-96311961D02*
X152142857Y-96407200D01*
X152142857Y-96407200D02*
X152238095Y-96454819D01*
X152238095Y-96454819D02*
X152380952Y-96454819D01*
X152380952Y-96454819D02*
X152476190Y-96407200D01*
X152476190Y-96407200D02*
X152523809Y-96359580D01*
X153000000Y-95788152D02*
X153000000Y-96454819D01*
X153000000Y-95883390D02*
X153047619Y-95835771D01*
X153047619Y-95835771D02*
X153142857Y-95788152D01*
X153142857Y-95788152D02*
X153285714Y-95788152D01*
X153285714Y-95788152D02*
X153380952Y-95835771D01*
X153380952Y-95835771D02*
X153428571Y-95931009D01*
X153428571Y-95931009D02*
X153428571Y-96454819D01*
X153761905Y-95788152D02*
X154142857Y-95788152D01*
X153904762Y-95454819D02*
X153904762Y-96311961D01*
X153904762Y-96311961D02*
X153952381Y-96407200D01*
X153952381Y-96407200D02*
X154047619Y-96454819D01*
X154047619Y-96454819D02*
X154142857Y-96454819D01*
X142785714Y-121931009D02*
X143119047Y-121931009D01*
X143261904Y-122454819D02*
X142785714Y-122454819D01*
X142785714Y-122454819D02*
X142785714Y-121454819D01*
X142785714Y-121454819D02*
X143261904Y-121454819D01*
X143642857Y-121550057D02*
X143690476Y-121502438D01*
X143690476Y-121502438D02*
X143785714Y-121454819D01*
X143785714Y-121454819D02*
X144023809Y-121454819D01*
X144023809Y-121454819D02*
X144119047Y-121502438D01*
X144119047Y-121502438D02*
X144166666Y-121550057D01*
X144166666Y-121550057D02*
X144214285Y-121645295D01*
X144214285Y-121645295D02*
X144214285Y-121740533D01*
X144214285Y-121740533D02*
X144166666Y-121883390D01*
X144166666Y-121883390D02*
X143595238Y-122454819D01*
X143595238Y-122454819D02*
X144214285Y-122454819D01*
X144595238Y-121550057D02*
X144642857Y-121502438D01*
X144642857Y-121502438D02*
X144738095Y-121454819D01*
X144738095Y-121454819D02*
X144976190Y-121454819D01*
X144976190Y-121454819D02*
X145071428Y-121502438D01*
X145071428Y-121502438D02*
X145119047Y-121550057D01*
X145119047Y-121550057D02*
X145166666Y-121645295D01*
X145166666Y-121645295D02*
X145166666Y-121740533D01*
X145166666Y-121740533D02*
X145119047Y-121883390D01*
X145119047Y-121883390D02*
X144547619Y-122454819D01*
X144547619Y-122454819D02*
X145166666Y-122454819D01*
X145595238Y-122073866D02*
X146357143Y-122073866D01*
X146880952Y-122454819D02*
X147071428Y-122454819D01*
X147071428Y-122454819D02*
X147166666Y-122407200D01*
X147166666Y-122407200D02*
X147214285Y-122359580D01*
X147214285Y-122359580D02*
X147309523Y-122216723D01*
X147309523Y-122216723D02*
X147357142Y-122026247D01*
X147357142Y-122026247D02*
X147357142Y-121645295D01*
X147357142Y-121645295D02*
X147309523Y-121550057D01*
X147309523Y-121550057D02*
X147261904Y-121502438D01*
X147261904Y-121502438D02*
X147166666Y-121454819D01*
X147166666Y-121454819D02*
X146976190Y-121454819D01*
X146976190Y-121454819D02*
X146880952Y-121502438D01*
X146880952Y-121502438D02*
X146833333Y-121550057D01*
X146833333Y-121550057D02*
X146785714Y-121645295D01*
X146785714Y-121645295D02*
X146785714Y-121883390D01*
X146785714Y-121883390D02*
X146833333Y-121978628D01*
X146833333Y-121978628D02*
X146880952Y-122026247D01*
X146880952Y-122026247D02*
X146976190Y-122073866D01*
X146976190Y-122073866D02*
X147166666Y-122073866D01*
X147166666Y-122073866D02*
X147261904Y-122026247D01*
X147261904Y-122026247D02*
X147309523Y-121978628D01*
X147309523Y-121978628D02*
X147357142Y-121883390D01*
X147976190Y-121454819D02*
X148071428Y-121454819D01*
X148071428Y-121454819D02*
X148166666Y-121502438D01*
X148166666Y-121502438D02*
X148214285Y-121550057D01*
X148214285Y-121550057D02*
X148261904Y-121645295D01*
X148261904Y-121645295D02*
X148309523Y-121835771D01*
X148309523Y-121835771D02*
X148309523Y-122073866D01*
X148309523Y-122073866D02*
X148261904Y-122264342D01*
X148261904Y-122264342D02*
X148214285Y-122359580D01*
X148214285Y-122359580D02*
X148166666Y-122407200D01*
X148166666Y-122407200D02*
X148071428Y-122454819D01*
X148071428Y-122454819D02*
X147976190Y-122454819D01*
X147976190Y-122454819D02*
X147880952Y-122407200D01*
X147880952Y-122407200D02*
X147833333Y-122359580D01*
X147833333Y-122359580D02*
X147785714Y-122264342D01*
X147785714Y-122264342D02*
X147738095Y-122073866D01*
X147738095Y-122073866D02*
X147738095Y-121835771D01*
X147738095Y-121835771D02*
X147785714Y-121645295D01*
X147785714Y-121645295D02*
X147833333Y-121550057D01*
X147833333Y-121550057D02*
X147880952Y-121502438D01*
X147880952Y-121502438D02*
X147976190Y-121454819D01*
X148928571Y-121454819D02*
X149023809Y-121454819D01*
X149023809Y-121454819D02*
X149119047Y-121502438D01*
X149119047Y-121502438D02*
X149166666Y-121550057D01*
X149166666Y-121550057D02*
X149214285Y-121645295D01*
X149214285Y-121645295D02*
X149261904Y-121835771D01*
X149261904Y-121835771D02*
X149261904Y-122073866D01*
X149261904Y-122073866D02*
X149214285Y-122264342D01*
X149214285Y-122264342D02*
X149166666Y-122359580D01*
X149166666Y-122359580D02*
X149119047Y-122407200D01*
X149119047Y-122407200D02*
X149023809Y-122454819D01*
X149023809Y-122454819D02*
X148928571Y-122454819D01*
X148928571Y-122454819D02*
X148833333Y-122407200D01*
X148833333Y-122407200D02*
X148785714Y-122359580D01*
X148785714Y-122359580D02*
X148738095Y-122264342D01*
X148738095Y-122264342D02*
X148690476Y-122073866D01*
X148690476Y-122073866D02*
X148690476Y-121835771D01*
X148690476Y-121835771D02*
X148738095Y-121645295D01*
X148738095Y-121645295D02*
X148785714Y-121550057D01*
X148785714Y-121550057D02*
X148833333Y-121502438D01*
X148833333Y-121502438D02*
X148928571Y-121454819D01*
X149690476Y-122454819D02*
X149690476Y-121454819D01*
X149690476Y-121454819D02*
X150023809Y-122169104D01*
X150023809Y-122169104D02*
X150357142Y-121454819D01*
X150357142Y-121454819D02*
X150357142Y-122454819D01*
X150785714Y-121550057D02*
X150833333Y-121502438D01*
X150833333Y-121502438D02*
X150928571Y-121454819D01*
X150928571Y-121454819D02*
X151166666Y-121454819D01*
X151166666Y-121454819D02*
X151261904Y-121502438D01*
X151261904Y-121502438D02*
X151309523Y-121550057D01*
X151309523Y-121550057D02*
X151357142Y-121645295D01*
X151357142Y-121645295D02*
X151357142Y-121740533D01*
X151357142Y-121740533D02*
X151309523Y-121883390D01*
X151309523Y-121883390D02*
X150738095Y-122454819D01*
X150738095Y-122454819D02*
X151357142Y-122454819D01*
X151738095Y-121550057D02*
X151785714Y-121502438D01*
X151785714Y-121502438D02*
X151880952Y-121454819D01*
X151880952Y-121454819D02*
X152119047Y-121454819D01*
X152119047Y-121454819D02*
X152214285Y-121502438D01*
X152214285Y-121502438D02*
X152261904Y-121550057D01*
X152261904Y-121550057D02*
X152309523Y-121645295D01*
X152309523Y-121645295D02*
X152309523Y-121740533D01*
X152309523Y-121740533D02*
X152261904Y-121883390D01*
X152261904Y-121883390D02*
X151690476Y-122454819D01*
X151690476Y-122454819D02*
X152309523Y-122454819D01*
X152690476Y-122407200D02*
X152833333Y-122454819D01*
X152833333Y-122454819D02*
X153071428Y-122454819D01*
X153071428Y-122454819D02*
X153166666Y-122407200D01*
X153166666Y-122407200D02*
X153214285Y-122359580D01*
X153214285Y-122359580D02*
X153261904Y-122264342D01*
X153261904Y-122264342D02*
X153261904Y-122169104D01*
X153261904Y-122169104D02*
X153214285Y-122073866D01*
X153214285Y-122073866D02*
X153166666Y-122026247D01*
X153166666Y-122026247D02*
X153071428Y-121978628D01*
X153071428Y-121978628D02*
X152880952Y-121931009D01*
X152880952Y-121931009D02*
X152785714Y-121883390D01*
X152785714Y-121883390D02*
X152738095Y-121835771D01*
X152738095Y-121835771D02*
X152690476Y-121740533D01*
X152690476Y-121740533D02*
X152690476Y-121645295D01*
X152690476Y-121645295D02*
X152738095Y-121550057D01*
X152738095Y-121550057D02*
X152785714Y-121502438D01*
X152785714Y-121502438D02*
X152880952Y-121454819D01*
X152880952Y-121454819D02*
X153119047Y-121454819D01*
X153119047Y-121454819D02*
X153261904Y-121502438D01*
X125976189Y-150954819D02*
X125642856Y-150478628D01*
X125404761Y-150954819D02*
X125404761Y-149954819D01*
X125404761Y-149954819D02*
X125785713Y-149954819D01*
X125785713Y-149954819D02*
X125880951Y-150002438D01*
X125880951Y-150002438D02*
X125928570Y-150050057D01*
X125928570Y-150050057D02*
X125976189Y-150145295D01*
X125976189Y-150145295D02*
X125976189Y-150288152D01*
X125976189Y-150288152D02*
X125928570Y-150383390D01*
X125928570Y-150383390D02*
X125880951Y-150431009D01*
X125880951Y-150431009D02*
X125785713Y-150478628D01*
X125785713Y-150478628D02*
X125404761Y-150478628D01*
X126833332Y-150954819D02*
X126833332Y-150431009D01*
X126833332Y-150431009D02*
X126785713Y-150335771D01*
X126785713Y-150335771D02*
X126690475Y-150288152D01*
X126690475Y-150288152D02*
X126499999Y-150288152D01*
X126499999Y-150288152D02*
X126404761Y-150335771D01*
X126833332Y-150907200D02*
X126738094Y-150954819D01*
X126738094Y-150954819D02*
X126499999Y-150954819D01*
X126499999Y-150954819D02*
X126404761Y-150907200D01*
X126404761Y-150907200D02*
X126357142Y-150811961D01*
X126357142Y-150811961D02*
X126357142Y-150716723D01*
X126357142Y-150716723D02*
X126404761Y-150621485D01*
X126404761Y-150621485D02*
X126499999Y-150573866D01*
X126499999Y-150573866D02*
X126738094Y-150573866D01*
X126738094Y-150573866D02*
X126833332Y-150526247D01*
X127261904Y-150907200D02*
X127357142Y-150954819D01*
X127357142Y-150954819D02*
X127547618Y-150954819D01*
X127547618Y-150954819D02*
X127642856Y-150907200D01*
X127642856Y-150907200D02*
X127690475Y-150811961D01*
X127690475Y-150811961D02*
X127690475Y-150764342D01*
X127690475Y-150764342D02*
X127642856Y-150669104D01*
X127642856Y-150669104D02*
X127547618Y-150621485D01*
X127547618Y-150621485D02*
X127404761Y-150621485D01*
X127404761Y-150621485D02*
X127309523Y-150573866D01*
X127309523Y-150573866D02*
X127261904Y-150478628D01*
X127261904Y-150478628D02*
X127261904Y-150431009D01*
X127261904Y-150431009D02*
X127309523Y-150335771D01*
X127309523Y-150335771D02*
X127404761Y-150288152D01*
X127404761Y-150288152D02*
X127547618Y-150288152D01*
X127547618Y-150288152D02*
X127642856Y-150335771D01*
X128119047Y-150288152D02*
X128119047Y-151288152D01*
X128119047Y-150335771D02*
X128214285Y-150288152D01*
X128214285Y-150288152D02*
X128404761Y-150288152D01*
X128404761Y-150288152D02*
X128499999Y-150335771D01*
X128499999Y-150335771D02*
X128547618Y-150383390D01*
X128547618Y-150383390D02*
X128595237Y-150478628D01*
X128595237Y-150478628D02*
X128595237Y-150764342D01*
X128595237Y-150764342D02*
X128547618Y-150859580D01*
X128547618Y-150859580D02*
X128499999Y-150907200D01*
X128499999Y-150907200D02*
X128404761Y-150954819D01*
X128404761Y-150954819D02*
X128214285Y-150954819D01*
X128214285Y-150954819D02*
X128119047Y-150907200D01*
X129023809Y-150954819D02*
X129023809Y-149954819D01*
X129023809Y-150335771D02*
X129119047Y-150288152D01*
X129119047Y-150288152D02*
X129309523Y-150288152D01*
X129309523Y-150288152D02*
X129404761Y-150335771D01*
X129404761Y-150335771D02*
X129452380Y-150383390D01*
X129452380Y-150383390D02*
X129499999Y-150478628D01*
X129499999Y-150478628D02*
X129499999Y-150764342D01*
X129499999Y-150764342D02*
X129452380Y-150859580D01*
X129452380Y-150859580D02*
X129404761Y-150907200D01*
X129404761Y-150907200D02*
X129309523Y-150954819D01*
X129309523Y-150954819D02*
X129119047Y-150954819D01*
X129119047Y-150954819D02*
X129023809Y-150907200D01*
X130309523Y-150907200D02*
X130214285Y-150954819D01*
X130214285Y-150954819D02*
X130023809Y-150954819D01*
X130023809Y-150954819D02*
X129928571Y-150907200D01*
X129928571Y-150907200D02*
X129880952Y-150811961D01*
X129880952Y-150811961D02*
X129880952Y-150431009D01*
X129880952Y-150431009D02*
X129928571Y-150335771D01*
X129928571Y-150335771D02*
X130023809Y-150288152D01*
X130023809Y-150288152D02*
X130214285Y-150288152D01*
X130214285Y-150288152D02*
X130309523Y-150335771D01*
X130309523Y-150335771D02*
X130357142Y-150431009D01*
X130357142Y-150431009D02*
X130357142Y-150526247D01*
X130357142Y-150526247D02*
X129880952Y-150621485D01*
X130785714Y-150954819D02*
X130785714Y-150288152D01*
X130785714Y-150478628D02*
X130833333Y-150383390D01*
X130833333Y-150383390D02*
X130880952Y-150335771D01*
X130880952Y-150335771D02*
X130976190Y-150288152D01*
X130976190Y-150288152D02*
X131071428Y-150288152D01*
X131404762Y-150954819D02*
X131404762Y-150288152D01*
X131404762Y-150478628D02*
X131452381Y-150383390D01*
X131452381Y-150383390D02*
X131500000Y-150335771D01*
X131500000Y-150335771D02*
X131595238Y-150288152D01*
X131595238Y-150288152D02*
X131690476Y-150288152D01*
X131928572Y-150288152D02*
X132166667Y-150954819D01*
X132404762Y-150288152D02*
X132166667Y-150954819D01*
X132166667Y-150954819D02*
X132071429Y-151192914D01*
X132071429Y-151192914D02*
X132023810Y-151240533D01*
X132023810Y-151240533D02*
X131928572Y-151288152D01*
X132547620Y-151050057D02*
X133309524Y-151050057D01*
X133547620Y-150954819D02*
X133547620Y-149954819D01*
X133547620Y-149954819D02*
X133928572Y-149954819D01*
X133928572Y-149954819D02*
X134023810Y-150002438D01*
X134023810Y-150002438D02*
X134071429Y-150050057D01*
X134071429Y-150050057D02*
X134119048Y-150145295D01*
X134119048Y-150145295D02*
X134119048Y-150288152D01*
X134119048Y-150288152D02*
X134071429Y-150383390D01*
X134071429Y-150383390D02*
X134023810Y-150431009D01*
X134023810Y-150431009D02*
X133928572Y-150478628D01*
X133928572Y-150478628D02*
X133547620Y-150478628D01*
X134547620Y-150954819D02*
X134547620Y-150288152D01*
X134547620Y-149954819D02*
X134500001Y-150002438D01*
X134500001Y-150002438D02*
X134547620Y-150050057D01*
X134547620Y-150050057D02*
X134595239Y-150002438D01*
X134595239Y-150002438D02*
X134547620Y-149954819D01*
X134547620Y-149954819D02*
X134547620Y-150050057D01*
X134785715Y-151050057D02*
X135547619Y-151050057D01*
X136214286Y-150288152D02*
X136214286Y-150954819D01*
X135976191Y-149907200D02*
X135738096Y-150621485D01*
X135738096Y-150621485D02*
X136357143Y-150621485D01*
X136928572Y-149954819D02*
X137023810Y-149954819D01*
X137023810Y-149954819D02*
X137119048Y-150002438D01*
X137119048Y-150002438D02*
X137166667Y-150050057D01*
X137166667Y-150050057D02*
X137214286Y-150145295D01*
X137214286Y-150145295D02*
X137261905Y-150335771D01*
X137261905Y-150335771D02*
X137261905Y-150573866D01*
X137261905Y-150573866D02*
X137214286Y-150764342D01*
X137214286Y-150764342D02*
X137166667Y-150859580D01*
X137166667Y-150859580D02*
X137119048Y-150907200D01*
X137119048Y-150907200D02*
X137023810Y-150954819D01*
X137023810Y-150954819D02*
X136928572Y-150954819D01*
X136928572Y-150954819D02*
X136833334Y-150907200D01*
X136833334Y-150907200D02*
X136785715Y-150859580D01*
X136785715Y-150859580D02*
X136738096Y-150764342D01*
X136738096Y-150764342D02*
X136690477Y-150573866D01*
X136690477Y-150573866D02*
X136690477Y-150335771D01*
X136690477Y-150335771D02*
X136738096Y-150145295D01*
X136738096Y-150145295D02*
X136785715Y-150050057D01*
X136785715Y-150050057D02*
X136833334Y-150002438D01*
X136833334Y-150002438D02*
X136928572Y-149954819D01*
X137690477Y-150954819D02*
X137690477Y-149954819D01*
X137690477Y-149954819D02*
X138071429Y-149954819D01*
X138071429Y-149954819D02*
X138166667Y-150002438D01*
X138166667Y-150002438D02*
X138214286Y-150050057D01*
X138214286Y-150050057D02*
X138261905Y-150145295D01*
X138261905Y-150145295D02*
X138261905Y-150288152D01*
X138261905Y-150288152D02*
X138214286Y-150383390D01*
X138214286Y-150383390D02*
X138166667Y-150431009D01*
X138166667Y-150431009D02*
X138071429Y-150478628D01*
X138071429Y-150478628D02*
X137690477Y-150478628D01*
X138690477Y-150954819D02*
X138690477Y-150288152D01*
X138690477Y-149954819D02*
X138642858Y-150002438D01*
X138642858Y-150002438D02*
X138690477Y-150050057D01*
X138690477Y-150050057D02*
X138738096Y-150002438D01*
X138738096Y-150002438D02*
X138690477Y-149954819D01*
X138690477Y-149954819D02*
X138690477Y-150050057D01*
X139166667Y-150288152D02*
X139166667Y-150954819D01*
X139166667Y-150383390D02*
X139214286Y-150335771D01*
X139214286Y-150335771D02*
X139309524Y-150288152D01*
X139309524Y-150288152D02*
X139452381Y-150288152D01*
X139452381Y-150288152D02*
X139547619Y-150335771D01*
X139547619Y-150335771D02*
X139595238Y-150431009D01*
X139595238Y-150431009D02*
X139595238Y-150954819D01*
X154666666Y-123859580D02*
X154619047Y-123907200D01*
X154619047Y-123907200D02*
X154476190Y-123954819D01*
X154476190Y-123954819D02*
X154380952Y-123954819D01*
X154380952Y-123954819D02*
X154238095Y-123907200D01*
X154238095Y-123907200D02*
X154142857Y-123811961D01*
X154142857Y-123811961D02*
X154095238Y-123716723D01*
X154095238Y-123716723D02*
X154047619Y-123526247D01*
X154047619Y-123526247D02*
X154047619Y-123383390D01*
X154047619Y-123383390D02*
X154095238Y-123192914D01*
X154095238Y-123192914D02*
X154142857Y-123097676D01*
X154142857Y-123097676D02*
X154238095Y-123002438D01*
X154238095Y-123002438D02*
X154380952Y-122954819D01*
X154380952Y-122954819D02*
X154476190Y-122954819D01*
X154476190Y-122954819D02*
X154619047Y-123002438D01*
X154619047Y-123002438D02*
X154666666Y-123050057D01*
X155095238Y-123954819D02*
X155095238Y-123288152D01*
X155095238Y-123478628D02*
X155142857Y-123383390D01*
X155142857Y-123383390D02*
X155190476Y-123335771D01*
X155190476Y-123335771D02*
X155285714Y-123288152D01*
X155285714Y-123288152D02*
X155380952Y-123288152D01*
X155619048Y-123288152D02*
X155857143Y-123954819D01*
X156095238Y-123288152D02*
X155857143Y-123954819D01*
X155857143Y-123954819D02*
X155761905Y-124192914D01*
X155761905Y-124192914D02*
X155714286Y-124240533D01*
X155714286Y-124240533D02*
X155619048Y-124288152D01*
X156476191Y-123288152D02*
X156476191Y-124288152D01*
X156476191Y-123335771D02*
X156571429Y-123288152D01*
X156571429Y-123288152D02*
X156761905Y-123288152D01*
X156761905Y-123288152D02*
X156857143Y-123335771D01*
X156857143Y-123335771D02*
X156904762Y-123383390D01*
X156904762Y-123383390D02*
X156952381Y-123478628D01*
X156952381Y-123478628D02*
X156952381Y-123764342D01*
X156952381Y-123764342D02*
X156904762Y-123859580D01*
X156904762Y-123859580D02*
X156857143Y-123907200D01*
X156857143Y-123907200D02*
X156761905Y-123954819D01*
X156761905Y-123954819D02*
X156571429Y-123954819D01*
X156571429Y-123954819D02*
X156476191Y-123907200D01*
X157238096Y-123288152D02*
X157619048Y-123288152D01*
X157380953Y-122954819D02*
X157380953Y-123811961D01*
X157380953Y-123811961D02*
X157428572Y-123907200D01*
X157428572Y-123907200D02*
X157523810Y-123954819D01*
X157523810Y-123954819D02*
X157619048Y-123954819D01*
X158095239Y-123954819D02*
X158000001Y-123907200D01*
X158000001Y-123907200D02*
X157952382Y-123859580D01*
X157952382Y-123859580D02*
X157904763Y-123764342D01*
X157904763Y-123764342D02*
X157904763Y-123478628D01*
X157904763Y-123478628D02*
X157952382Y-123383390D01*
X157952382Y-123383390D02*
X158000001Y-123335771D01*
X158000001Y-123335771D02*
X158095239Y-123288152D01*
X158095239Y-123288152D02*
X158238096Y-123288152D01*
X158238096Y-123288152D02*
X158333334Y-123335771D01*
X158333334Y-123335771D02*
X158380953Y-123383390D01*
X158380953Y-123383390D02*
X158428572Y-123478628D01*
X158428572Y-123478628D02*
X158428572Y-123764342D01*
X158428572Y-123764342D02*
X158380953Y-123859580D01*
X158380953Y-123859580D02*
X158333334Y-123907200D01*
X158333334Y-123907200D02*
X158238096Y-123954819D01*
X158238096Y-123954819D02*
X158095239Y-123954819D01*
X158619049Y-124050057D02*
X159380953Y-124050057D01*
X160285715Y-124050057D02*
X160190477Y-124002438D01*
X160190477Y-124002438D02*
X160095239Y-123907200D01*
X160095239Y-123907200D02*
X159952382Y-123764342D01*
X159952382Y-123764342D02*
X159857144Y-123716723D01*
X159857144Y-123716723D02*
X159761906Y-123716723D01*
X159809525Y-123954819D02*
X159714287Y-123907200D01*
X159714287Y-123907200D02*
X159619049Y-123811961D01*
X159619049Y-123811961D02*
X159571430Y-123621485D01*
X159571430Y-123621485D02*
X159571430Y-123288152D01*
X159571430Y-123288152D02*
X159619049Y-123097676D01*
X159619049Y-123097676D02*
X159714287Y-123002438D01*
X159714287Y-123002438D02*
X159809525Y-122954819D01*
X159809525Y-122954819D02*
X160000001Y-122954819D01*
X160000001Y-122954819D02*
X160095239Y-123002438D01*
X160095239Y-123002438D02*
X160190477Y-123097676D01*
X160190477Y-123097676D02*
X160238096Y-123288152D01*
X160238096Y-123288152D02*
X160238096Y-123621485D01*
X160238096Y-123621485D02*
X160190477Y-123811961D01*
X160190477Y-123811961D02*
X160095239Y-123907200D01*
X160095239Y-123907200D02*
X160000001Y-123954819D01*
X160000001Y-123954819D02*
X159809525Y-123954819D01*
X160619049Y-123907200D02*
X160761906Y-123954819D01*
X160761906Y-123954819D02*
X161000001Y-123954819D01*
X161000001Y-123954819D02*
X161095239Y-123907200D01*
X161095239Y-123907200D02*
X161142858Y-123859580D01*
X161142858Y-123859580D02*
X161190477Y-123764342D01*
X161190477Y-123764342D02*
X161190477Y-123669104D01*
X161190477Y-123669104D02*
X161142858Y-123573866D01*
X161142858Y-123573866D02*
X161095239Y-123526247D01*
X161095239Y-123526247D02*
X161000001Y-123478628D01*
X161000001Y-123478628D02*
X160809525Y-123431009D01*
X160809525Y-123431009D02*
X160714287Y-123383390D01*
X160714287Y-123383390D02*
X160666668Y-123335771D01*
X160666668Y-123335771D02*
X160619049Y-123240533D01*
X160619049Y-123240533D02*
X160619049Y-123145295D01*
X160619049Y-123145295D02*
X160666668Y-123050057D01*
X160666668Y-123050057D02*
X160714287Y-123002438D01*
X160714287Y-123002438D02*
X160809525Y-122954819D01*
X160809525Y-122954819D02*
X161047620Y-122954819D01*
X161047620Y-122954819D02*
X161190477Y-123002438D01*
X161619049Y-123954819D02*
X161619049Y-122954819D01*
X161619049Y-122954819D02*
X162000001Y-122954819D01*
X162000001Y-122954819D02*
X162095239Y-123002438D01*
X162095239Y-123002438D02*
X162142858Y-123050057D01*
X162142858Y-123050057D02*
X162190477Y-123145295D01*
X162190477Y-123145295D02*
X162190477Y-123288152D01*
X162190477Y-123288152D02*
X162142858Y-123383390D01*
X162142858Y-123383390D02*
X162095239Y-123431009D01*
X162095239Y-123431009D02*
X162000001Y-123478628D01*
X162000001Y-123478628D02*
X161619049Y-123478628D01*
X162619049Y-123954819D02*
X162619049Y-122954819D01*
X162857144Y-124050057D02*
X163619048Y-124050057D01*
X163857144Y-123954819D02*
X163857144Y-122954819D01*
X164904762Y-123954819D02*
X164571429Y-123478628D01*
X164333334Y-123954819D02*
X164333334Y-122954819D01*
X164333334Y-122954819D02*
X164714286Y-122954819D01*
X164714286Y-122954819D02*
X164809524Y-123002438D01*
X164809524Y-123002438D02*
X164857143Y-123050057D01*
X164857143Y-123050057D02*
X164904762Y-123145295D01*
X164904762Y-123145295D02*
X164904762Y-123288152D01*
X164904762Y-123288152D02*
X164857143Y-123383390D01*
X164857143Y-123383390D02*
X164809524Y-123431009D01*
X164809524Y-123431009D02*
X164714286Y-123478628D01*
X164714286Y-123478628D02*
X164333334Y-123478628D01*
X166000000Y-124050057D02*
X165904762Y-124002438D01*
X165904762Y-124002438D02*
X165809524Y-123907200D01*
X165809524Y-123907200D02*
X165666667Y-123764342D01*
X165666667Y-123764342D02*
X165571429Y-123716723D01*
X165571429Y-123716723D02*
X165476191Y-123716723D01*
X165523810Y-123954819D02*
X165428572Y-123907200D01*
X165428572Y-123907200D02*
X165333334Y-123811961D01*
X165333334Y-123811961D02*
X165285715Y-123621485D01*
X165285715Y-123621485D02*
X165285715Y-123288152D01*
X165285715Y-123288152D02*
X165333334Y-123097676D01*
X165333334Y-123097676D02*
X165428572Y-123002438D01*
X165428572Y-123002438D02*
X165523810Y-122954819D01*
X165523810Y-122954819D02*
X165714286Y-122954819D01*
X165714286Y-122954819D02*
X165809524Y-123002438D01*
X165809524Y-123002438D02*
X165904762Y-123097676D01*
X165904762Y-123097676D02*
X165952381Y-123288152D01*
X165952381Y-123288152D02*
X165952381Y-123621485D01*
X165952381Y-123621485D02*
X165904762Y-123811961D01*
X165904762Y-123811961D02*
X165809524Y-123907200D01*
X165809524Y-123907200D02*
X165714286Y-123954819D01*
X165714286Y-123954819D02*
X165523810Y-123954819D01*
X106954819Y-136904762D02*
X106954819Y-137380952D01*
X106954819Y-137380952D02*
X105954819Y-137380952D01*
X106954819Y-136571428D02*
X106288152Y-136571428D01*
X105954819Y-136571428D02*
X106002438Y-136619047D01*
X106002438Y-136619047D02*
X106050057Y-136571428D01*
X106050057Y-136571428D02*
X106002438Y-136523809D01*
X106002438Y-136523809D02*
X105954819Y-136571428D01*
X105954819Y-136571428D02*
X106050057Y-136571428D01*
X106954819Y-136095238D02*
X105954819Y-136095238D01*
X105954819Y-136095238D02*
X105954819Y-135714286D01*
X105954819Y-135714286D02*
X106002438Y-135619048D01*
X106002438Y-135619048D02*
X106050057Y-135571429D01*
X106050057Y-135571429D02*
X106145295Y-135523810D01*
X106145295Y-135523810D02*
X106288152Y-135523810D01*
X106288152Y-135523810D02*
X106383390Y-135571429D01*
X106383390Y-135571429D02*
X106431009Y-135619048D01*
X106431009Y-135619048D02*
X106478628Y-135714286D01*
X106478628Y-135714286D02*
X106478628Y-136095238D01*
X106954819Y-134952381D02*
X106907200Y-135047619D01*
X106907200Y-135047619D02*
X106859580Y-135095238D01*
X106859580Y-135095238D02*
X106764342Y-135142857D01*
X106764342Y-135142857D02*
X106478628Y-135142857D01*
X106478628Y-135142857D02*
X106383390Y-135095238D01*
X106383390Y-135095238D02*
X106335771Y-135047619D01*
X106335771Y-135047619D02*
X106288152Y-134952381D01*
X106288152Y-134952381D02*
X106288152Y-134809524D01*
X106288152Y-134809524D02*
X106335771Y-134714286D01*
X106335771Y-134714286D02*
X106383390Y-134666667D01*
X106383390Y-134666667D02*
X106478628Y-134619048D01*
X106478628Y-134619048D02*
X106764342Y-134619048D01*
X106764342Y-134619048D02*
X106859580Y-134666667D01*
X106859580Y-134666667D02*
X106907200Y-134714286D01*
X106907200Y-134714286D02*
X106954819Y-134809524D01*
X106954819Y-134809524D02*
X106954819Y-134952381D01*
X107050057Y-134428572D02*
X107050057Y-133666667D01*
X106431009Y-133095238D02*
X106478628Y-132952381D01*
X106478628Y-132952381D02*
X106526247Y-132904762D01*
X106526247Y-132904762D02*
X106621485Y-132857143D01*
X106621485Y-132857143D02*
X106764342Y-132857143D01*
X106764342Y-132857143D02*
X106859580Y-132904762D01*
X106859580Y-132904762D02*
X106907200Y-132952381D01*
X106907200Y-132952381D02*
X106954819Y-133047619D01*
X106954819Y-133047619D02*
X106954819Y-133428571D01*
X106954819Y-133428571D02*
X105954819Y-133428571D01*
X105954819Y-133428571D02*
X105954819Y-133095238D01*
X105954819Y-133095238D02*
X106002438Y-133000000D01*
X106002438Y-133000000D02*
X106050057Y-132952381D01*
X106050057Y-132952381D02*
X106145295Y-132904762D01*
X106145295Y-132904762D02*
X106240533Y-132904762D01*
X106240533Y-132904762D02*
X106335771Y-132952381D01*
X106335771Y-132952381D02*
X106383390Y-133000000D01*
X106383390Y-133000000D02*
X106431009Y-133095238D01*
X106431009Y-133095238D02*
X106431009Y-133428571D01*
X106954819Y-132000000D02*
X106431009Y-132000000D01*
X106431009Y-132000000D02*
X106335771Y-132047619D01*
X106335771Y-132047619D02*
X106288152Y-132142857D01*
X106288152Y-132142857D02*
X106288152Y-132333333D01*
X106288152Y-132333333D02*
X106335771Y-132428571D01*
X106907200Y-132000000D02*
X106954819Y-132095238D01*
X106954819Y-132095238D02*
X106954819Y-132333333D01*
X106954819Y-132333333D02*
X106907200Y-132428571D01*
X106907200Y-132428571D02*
X106811961Y-132476190D01*
X106811961Y-132476190D02*
X106716723Y-132476190D01*
X106716723Y-132476190D02*
X106621485Y-132428571D01*
X106621485Y-132428571D02*
X106573866Y-132333333D01*
X106573866Y-132333333D02*
X106573866Y-132095238D01*
X106573866Y-132095238D02*
X106526247Y-132000000D01*
X106288152Y-131666666D02*
X106288152Y-131285714D01*
X105954819Y-131523809D02*
X106811961Y-131523809D01*
X106811961Y-131523809D02*
X106907200Y-131476190D01*
X106907200Y-131476190D02*
X106954819Y-131380952D01*
X106954819Y-131380952D02*
X106954819Y-131285714D01*
X106288152Y-131095237D02*
X106288152Y-130714285D01*
X105954819Y-130952380D02*
X106811961Y-130952380D01*
X106811961Y-130952380D02*
X106907200Y-130904761D01*
X106907200Y-130904761D02*
X106954819Y-130809523D01*
X106954819Y-130809523D02*
X106954819Y-130714285D01*
X106907200Y-129999999D02*
X106954819Y-130095237D01*
X106954819Y-130095237D02*
X106954819Y-130285713D01*
X106954819Y-130285713D02*
X106907200Y-130380951D01*
X106907200Y-130380951D02*
X106811961Y-130428570D01*
X106811961Y-130428570D02*
X106431009Y-130428570D01*
X106431009Y-130428570D02*
X106335771Y-130380951D01*
X106335771Y-130380951D02*
X106288152Y-130285713D01*
X106288152Y-130285713D02*
X106288152Y-130095237D01*
X106288152Y-130095237D02*
X106335771Y-129999999D01*
X106335771Y-129999999D02*
X106431009Y-129952380D01*
X106431009Y-129952380D02*
X106526247Y-129952380D01*
X106526247Y-129952380D02*
X106621485Y-130428570D01*
X106954819Y-129523808D02*
X106288152Y-129523808D01*
X106478628Y-129523808D02*
X106383390Y-129476189D01*
X106383390Y-129476189D02*
X106335771Y-129428570D01*
X106335771Y-129428570D02*
X106288152Y-129333332D01*
X106288152Y-129333332D02*
X106288152Y-129238094D01*
X106288152Y-128999998D02*
X106954819Y-128761903D01*
X106288152Y-128523808D02*
X106954819Y-128761903D01*
X106954819Y-128761903D02*
X107192914Y-128857141D01*
X107192914Y-128857141D02*
X107240533Y-128904760D01*
X107240533Y-128904760D02*
X107288152Y-128999998D01*
X107047619Y-132169104D02*
X107523809Y-132169104D01*
X106952381Y-132454819D02*
X107285714Y-131454819D01*
X107285714Y-131454819D02*
X107619047Y-132454819D01*
X107952381Y-132454819D02*
X107952381Y-131454819D01*
X107952381Y-131454819D02*
X108333333Y-131454819D01*
X108333333Y-131454819D02*
X108428571Y-131502438D01*
X108428571Y-131502438D02*
X108476190Y-131550057D01*
X108476190Y-131550057D02*
X108523809Y-131645295D01*
X108523809Y-131645295D02*
X108523809Y-131788152D01*
X108523809Y-131788152D02*
X108476190Y-131883390D01*
X108476190Y-131883390D02*
X108428571Y-131931009D01*
X108428571Y-131931009D02*
X108333333Y-131978628D01*
X108333333Y-131978628D02*
X107952381Y-131978628D01*
X108904762Y-131550057D02*
X108952381Y-131502438D01*
X108952381Y-131502438D02*
X109047619Y-131454819D01*
X109047619Y-131454819D02*
X109285714Y-131454819D01*
X109285714Y-131454819D02*
X109380952Y-131502438D01*
X109380952Y-131502438D02*
X109428571Y-131550057D01*
X109428571Y-131550057D02*
X109476190Y-131645295D01*
X109476190Y-131645295D02*
X109476190Y-131740533D01*
X109476190Y-131740533D02*
X109428571Y-131883390D01*
X109428571Y-131883390D02*
X108857143Y-132454819D01*
X108857143Y-132454819D02*
X109476190Y-132454819D01*
X110428571Y-132454819D02*
X109857143Y-132454819D01*
X110142857Y-132454819D02*
X110142857Y-131454819D01*
X110142857Y-131454819D02*
X110047619Y-131597676D01*
X110047619Y-131597676D02*
X109952381Y-131692914D01*
X109952381Y-131692914D02*
X109857143Y-131740533D01*
X111380952Y-132454819D02*
X110809524Y-132454819D01*
X111095238Y-132454819D02*
X111095238Y-131454819D01*
X111095238Y-131454819D02*
X111000000Y-131597676D01*
X111000000Y-131597676D02*
X110904762Y-131692914D01*
X110904762Y-131692914D02*
X110809524Y-131740533D01*
X111761905Y-131550057D02*
X111809524Y-131502438D01*
X111809524Y-131502438D02*
X111904762Y-131454819D01*
X111904762Y-131454819D02*
X112142857Y-131454819D01*
X112142857Y-131454819D02*
X112238095Y-131502438D01*
X112238095Y-131502438D02*
X112285714Y-131550057D01*
X112285714Y-131550057D02*
X112333333Y-131645295D01*
X112333333Y-131645295D02*
X112333333Y-131740533D01*
X112333333Y-131740533D02*
X112285714Y-131883390D01*
X112285714Y-131883390D02*
X111714286Y-132454819D01*
X111714286Y-132454819D02*
X112333333Y-132454819D01*
X112761905Y-132454819D02*
X112761905Y-131454819D01*
X113333333Y-132454819D02*
X112904762Y-131883390D01*
X113333333Y-131454819D02*
X112761905Y-132026247D01*
X113761905Y-132073866D02*
X114523810Y-132073866D01*
X114904762Y-131454819D02*
X115523809Y-131454819D01*
X115523809Y-131454819D02*
X115190476Y-131835771D01*
X115190476Y-131835771D02*
X115333333Y-131835771D01*
X115333333Y-131835771D02*
X115428571Y-131883390D01*
X115428571Y-131883390D02*
X115476190Y-131931009D01*
X115476190Y-131931009D02*
X115523809Y-132026247D01*
X115523809Y-132026247D02*
X115523809Y-132264342D01*
X115523809Y-132264342D02*
X115476190Y-132359580D01*
X115476190Y-132359580D02*
X115428571Y-132407200D01*
X115428571Y-132407200D02*
X115333333Y-132454819D01*
X115333333Y-132454819D02*
X115047619Y-132454819D01*
X115047619Y-132454819D02*
X114952381Y-132407200D01*
X114952381Y-132407200D02*
X114904762Y-132359580D01*
X115952381Y-132359580D02*
X116000000Y-132407200D01*
X116000000Y-132407200D02*
X115952381Y-132454819D01*
X115952381Y-132454819D02*
X115904762Y-132407200D01*
X115904762Y-132407200D02*
X115952381Y-132359580D01*
X115952381Y-132359580D02*
X115952381Y-132454819D01*
X116333333Y-131454819D02*
X116952380Y-131454819D01*
X116952380Y-131454819D02*
X116619047Y-131835771D01*
X116619047Y-131835771D02*
X116761904Y-131835771D01*
X116761904Y-131835771D02*
X116857142Y-131883390D01*
X116857142Y-131883390D02*
X116904761Y-131931009D01*
X116904761Y-131931009D02*
X116952380Y-132026247D01*
X116952380Y-132026247D02*
X116952380Y-132264342D01*
X116952380Y-132264342D02*
X116904761Y-132359580D01*
X116904761Y-132359580D02*
X116857142Y-132407200D01*
X116857142Y-132407200D02*
X116761904Y-132454819D01*
X116761904Y-132454819D02*
X116476190Y-132454819D01*
X116476190Y-132454819D02*
X116380952Y-132407200D01*
X116380952Y-132407200D02*
X116333333Y-132359580D01*
X109309524Y-116454819D02*
X109880952Y-116454819D01*
X109595238Y-117454819D02*
X109595238Y-116454819D01*
X110214286Y-117454819D02*
X110214286Y-116454819D01*
X110214286Y-116454819D02*
X110595238Y-116454819D01*
X110595238Y-116454819D02*
X110690476Y-116502438D01*
X110690476Y-116502438D02*
X110738095Y-116550057D01*
X110738095Y-116550057D02*
X110785714Y-116645295D01*
X110785714Y-116645295D02*
X110785714Y-116788152D01*
X110785714Y-116788152D02*
X110738095Y-116883390D01*
X110738095Y-116883390D02*
X110690476Y-116931009D01*
X110690476Y-116931009D02*
X110595238Y-116978628D01*
X110595238Y-116978628D02*
X110214286Y-116978628D01*
X111642857Y-116788152D02*
X111642857Y-117454819D01*
X111404762Y-116407200D02*
X111166667Y-117121485D01*
X111166667Y-117121485D02*
X111785714Y-117121485D01*
X112357143Y-116454819D02*
X112452381Y-116454819D01*
X112452381Y-116454819D02*
X112547619Y-116502438D01*
X112547619Y-116502438D02*
X112595238Y-116550057D01*
X112595238Y-116550057D02*
X112642857Y-116645295D01*
X112642857Y-116645295D02*
X112690476Y-116835771D01*
X112690476Y-116835771D02*
X112690476Y-117073866D01*
X112690476Y-117073866D02*
X112642857Y-117264342D01*
X112642857Y-117264342D02*
X112595238Y-117359580D01*
X112595238Y-117359580D02*
X112547619Y-117407200D01*
X112547619Y-117407200D02*
X112452381Y-117454819D01*
X112452381Y-117454819D02*
X112357143Y-117454819D01*
X112357143Y-117454819D02*
X112261905Y-117407200D01*
X112261905Y-117407200D02*
X112214286Y-117359580D01*
X112214286Y-117359580D02*
X112166667Y-117264342D01*
X112166667Y-117264342D02*
X112119048Y-117073866D01*
X112119048Y-117073866D02*
X112119048Y-116835771D01*
X112119048Y-116835771D02*
X112166667Y-116645295D01*
X112166667Y-116645295D02*
X112214286Y-116550057D01*
X112214286Y-116550057D02*
X112261905Y-116502438D01*
X112261905Y-116502438D02*
X112357143Y-116454819D01*
X113595238Y-116454819D02*
X113119048Y-116454819D01*
X113119048Y-116454819D02*
X113071429Y-116931009D01*
X113071429Y-116931009D02*
X113119048Y-116883390D01*
X113119048Y-116883390D02*
X113214286Y-116835771D01*
X113214286Y-116835771D02*
X113452381Y-116835771D01*
X113452381Y-116835771D02*
X113547619Y-116883390D01*
X113547619Y-116883390D02*
X113595238Y-116931009D01*
X113595238Y-116931009D02*
X113642857Y-117026247D01*
X113642857Y-117026247D02*
X113642857Y-117264342D01*
X113642857Y-117264342D02*
X113595238Y-117359580D01*
X113595238Y-117359580D02*
X113547619Y-117407200D01*
X113547619Y-117407200D02*
X113452381Y-117454819D01*
X113452381Y-117454819D02*
X113214286Y-117454819D01*
X113214286Y-117454819D02*
X113119048Y-117407200D01*
X113119048Y-117407200D02*
X113071429Y-117359580D01*
X114500000Y-116454819D02*
X114309524Y-116454819D01*
X114309524Y-116454819D02*
X114214286Y-116502438D01*
X114214286Y-116502438D02*
X114166667Y-116550057D01*
X114166667Y-116550057D02*
X114071429Y-116692914D01*
X114071429Y-116692914D02*
X114023810Y-116883390D01*
X114023810Y-116883390D02*
X114023810Y-117264342D01*
X114023810Y-117264342D02*
X114071429Y-117359580D01*
X114071429Y-117359580D02*
X114119048Y-117407200D01*
X114119048Y-117407200D02*
X114214286Y-117454819D01*
X114214286Y-117454819D02*
X114404762Y-117454819D01*
X114404762Y-117454819D02*
X114500000Y-117407200D01*
X114500000Y-117407200D02*
X114547619Y-117359580D01*
X114547619Y-117359580D02*
X114595238Y-117264342D01*
X114595238Y-117264342D02*
X114595238Y-117026247D01*
X114595238Y-117026247D02*
X114547619Y-116931009D01*
X114547619Y-116931009D02*
X114500000Y-116883390D01*
X114500000Y-116883390D02*
X114404762Y-116835771D01*
X114404762Y-116835771D02*
X114214286Y-116835771D01*
X114214286Y-116835771D02*
X114119048Y-116883390D01*
X114119048Y-116883390D02*
X114071429Y-116931009D01*
X114071429Y-116931009D02*
X114023810Y-117026247D01*
X107761905Y-124454819D02*
X107761905Y-123454819D01*
X107761905Y-123454819D02*
X108000000Y-123454819D01*
X108000000Y-123454819D02*
X108142857Y-123502438D01*
X108142857Y-123502438D02*
X108238095Y-123597676D01*
X108238095Y-123597676D02*
X108285714Y-123692914D01*
X108285714Y-123692914D02*
X108333333Y-123883390D01*
X108333333Y-123883390D02*
X108333333Y-124026247D01*
X108333333Y-124026247D02*
X108285714Y-124216723D01*
X108285714Y-124216723D02*
X108238095Y-124311961D01*
X108238095Y-124311961D02*
X108142857Y-124407200D01*
X108142857Y-124407200D02*
X108000000Y-124454819D01*
X108000000Y-124454819D02*
X107761905Y-124454819D01*
X108761905Y-124454819D02*
X108761905Y-123454819D01*
X108761905Y-123454819D02*
X109095238Y-124169104D01*
X109095238Y-124169104D02*
X109428571Y-123454819D01*
X109428571Y-123454819D02*
X109428571Y-124454819D01*
X110428571Y-123502438D02*
X110333333Y-123454819D01*
X110333333Y-123454819D02*
X110190476Y-123454819D01*
X110190476Y-123454819D02*
X110047619Y-123502438D01*
X110047619Y-123502438D02*
X109952381Y-123597676D01*
X109952381Y-123597676D02*
X109904762Y-123692914D01*
X109904762Y-123692914D02*
X109857143Y-123883390D01*
X109857143Y-123883390D02*
X109857143Y-124026247D01*
X109857143Y-124026247D02*
X109904762Y-124216723D01*
X109904762Y-124216723D02*
X109952381Y-124311961D01*
X109952381Y-124311961D02*
X110047619Y-124407200D01*
X110047619Y-124407200D02*
X110190476Y-124454819D01*
X110190476Y-124454819D02*
X110285714Y-124454819D01*
X110285714Y-124454819D02*
X110428571Y-124407200D01*
X110428571Y-124407200D02*
X110476190Y-124359580D01*
X110476190Y-124359580D02*
X110476190Y-124026247D01*
X110476190Y-124026247D02*
X110285714Y-124026247D01*
X110857143Y-123550057D02*
X110904762Y-123502438D01*
X110904762Y-123502438D02*
X111000000Y-123454819D01*
X111000000Y-123454819D02*
X111238095Y-123454819D01*
X111238095Y-123454819D02*
X111333333Y-123502438D01*
X111333333Y-123502438D02*
X111380952Y-123550057D01*
X111380952Y-123550057D02*
X111428571Y-123645295D01*
X111428571Y-123645295D02*
X111428571Y-123740533D01*
X111428571Y-123740533D02*
X111380952Y-123883390D01*
X111380952Y-123883390D02*
X110809524Y-124454819D01*
X110809524Y-124454819D02*
X111428571Y-124454819D01*
X111761905Y-123454819D02*
X112380952Y-123454819D01*
X112380952Y-123454819D02*
X112047619Y-123835771D01*
X112047619Y-123835771D02*
X112190476Y-123835771D01*
X112190476Y-123835771D02*
X112285714Y-123883390D01*
X112285714Y-123883390D02*
X112333333Y-123931009D01*
X112333333Y-123931009D02*
X112380952Y-124026247D01*
X112380952Y-124026247D02*
X112380952Y-124264342D01*
X112380952Y-124264342D02*
X112333333Y-124359580D01*
X112333333Y-124359580D02*
X112285714Y-124407200D01*
X112285714Y-124407200D02*
X112190476Y-124454819D01*
X112190476Y-124454819D02*
X111904762Y-124454819D01*
X111904762Y-124454819D02*
X111809524Y-124407200D01*
X111809524Y-124407200D02*
X111761905Y-124359580D01*
X113000000Y-123454819D02*
X113095238Y-123454819D01*
X113095238Y-123454819D02*
X113190476Y-123502438D01*
X113190476Y-123502438D02*
X113238095Y-123550057D01*
X113238095Y-123550057D02*
X113285714Y-123645295D01*
X113285714Y-123645295D02*
X113333333Y-123835771D01*
X113333333Y-123835771D02*
X113333333Y-124073866D01*
X113333333Y-124073866D02*
X113285714Y-124264342D01*
X113285714Y-124264342D02*
X113238095Y-124359580D01*
X113238095Y-124359580D02*
X113190476Y-124407200D01*
X113190476Y-124407200D02*
X113095238Y-124454819D01*
X113095238Y-124454819D02*
X113000000Y-124454819D01*
X113000000Y-124454819D02*
X112904762Y-124407200D01*
X112904762Y-124407200D02*
X112857143Y-124359580D01*
X112857143Y-124359580D02*
X112809524Y-124264342D01*
X112809524Y-124264342D02*
X112761905Y-124073866D01*
X112761905Y-124073866D02*
X112761905Y-123835771D01*
X112761905Y-123835771D02*
X112809524Y-123645295D01*
X112809524Y-123645295D02*
X112857143Y-123550057D01*
X112857143Y-123550057D02*
X112904762Y-123502438D01*
X112904762Y-123502438D02*
X113000000Y-123454819D01*
X114238095Y-123454819D02*
X113761905Y-123454819D01*
X113761905Y-123454819D02*
X113714286Y-123931009D01*
X113714286Y-123931009D02*
X113761905Y-123883390D01*
X113761905Y-123883390D02*
X113857143Y-123835771D01*
X113857143Y-123835771D02*
X114095238Y-123835771D01*
X114095238Y-123835771D02*
X114190476Y-123883390D01*
X114190476Y-123883390D02*
X114238095Y-123931009D01*
X114238095Y-123931009D02*
X114285714Y-124026247D01*
X114285714Y-124026247D02*
X114285714Y-124264342D01*
X114285714Y-124264342D02*
X114238095Y-124359580D01*
X114238095Y-124359580D02*
X114190476Y-124407200D01*
X114190476Y-124407200D02*
X114095238Y-124454819D01*
X114095238Y-124454819D02*
X113857143Y-124454819D01*
X113857143Y-124454819D02*
X113761905Y-124407200D01*
X113761905Y-124407200D02*
X113714286Y-124359580D01*
X114714286Y-123454819D02*
X114714286Y-124264342D01*
X114714286Y-124264342D02*
X114761905Y-124359580D01*
X114761905Y-124359580D02*
X114809524Y-124407200D01*
X114809524Y-124407200D02*
X114904762Y-124454819D01*
X114904762Y-124454819D02*
X115095238Y-124454819D01*
X115095238Y-124454819D02*
X115190476Y-124407200D01*
X115190476Y-124407200D02*
X115238095Y-124359580D01*
X115238095Y-124359580D02*
X115285714Y-124264342D01*
X115285714Y-124264342D02*
X115285714Y-123454819D01*
X115666667Y-123454819D02*
X116333333Y-124454819D01*
X116333333Y-123454819D02*
X115666667Y-124454819D01*
X158407200Y-144071428D02*
X158454819Y-143928571D01*
X158454819Y-143928571D02*
X158454819Y-143690476D01*
X158454819Y-143690476D02*
X158407200Y-143595238D01*
X158407200Y-143595238D02*
X158359580Y-143547619D01*
X158359580Y-143547619D02*
X158264342Y-143500000D01*
X158264342Y-143500000D02*
X158169104Y-143500000D01*
X158169104Y-143500000D02*
X158073866Y-143547619D01*
X158073866Y-143547619D02*
X158026247Y-143595238D01*
X158026247Y-143595238D02*
X157978628Y-143690476D01*
X157978628Y-143690476D02*
X157931009Y-143880952D01*
X157931009Y-143880952D02*
X157883390Y-143976190D01*
X157883390Y-143976190D02*
X157835771Y-144023809D01*
X157835771Y-144023809D02*
X157740533Y-144071428D01*
X157740533Y-144071428D02*
X157645295Y-144071428D01*
X157645295Y-144071428D02*
X157550057Y-144023809D01*
X157550057Y-144023809D02*
X157502438Y-143976190D01*
X157502438Y-143976190D02*
X157454819Y-143880952D01*
X157454819Y-143880952D02*
X157454819Y-143642857D01*
X157454819Y-143642857D02*
X157502438Y-143500000D01*
X157454819Y-143214285D02*
X157454819Y-142642857D01*
X158454819Y-142928571D02*
X157454819Y-142928571D01*
X157931009Y-142309523D02*
X157931009Y-141976190D01*
X158454819Y-141833333D02*
X158454819Y-142309523D01*
X158454819Y-142309523D02*
X157454819Y-142309523D01*
X157454819Y-142309523D02*
X157454819Y-141833333D01*
X158454819Y-141404761D02*
X157454819Y-141404761D01*
X157454819Y-141404761D02*
X158169104Y-141071428D01*
X158169104Y-141071428D02*
X157454819Y-140738095D01*
X157454819Y-140738095D02*
X158454819Y-140738095D01*
X158454819Y-140261904D02*
X157454819Y-140261904D01*
X157454819Y-140261904D02*
X158169104Y-139928571D01*
X158169104Y-139928571D02*
X157454819Y-139595238D01*
X157454819Y-139595238D02*
X158454819Y-139595238D01*
X158169104Y-139166666D02*
X158169104Y-138690476D01*
X158454819Y-139261904D02*
X157454819Y-138928571D01*
X157454819Y-138928571D02*
X158454819Y-138595238D01*
X158550057Y-138500000D02*
X158550057Y-137738095D01*
X158550057Y-136833333D02*
X158502438Y-136928571D01*
X158502438Y-136928571D02*
X158407200Y-137023809D01*
X158407200Y-137023809D02*
X158264342Y-137166666D01*
X158264342Y-137166666D02*
X158216723Y-137261904D01*
X158216723Y-137261904D02*
X158216723Y-137357142D01*
X158454819Y-137309523D02*
X158407200Y-137404761D01*
X158407200Y-137404761D02*
X158311961Y-137499999D01*
X158311961Y-137499999D02*
X158121485Y-137547618D01*
X158121485Y-137547618D02*
X157788152Y-137547618D01*
X157788152Y-137547618D02*
X157597676Y-137499999D01*
X157597676Y-137499999D02*
X157502438Y-137404761D01*
X157502438Y-137404761D02*
X157454819Y-137309523D01*
X157454819Y-137309523D02*
X157454819Y-137119047D01*
X157454819Y-137119047D02*
X157502438Y-137023809D01*
X157502438Y-137023809D02*
X157597676Y-136928571D01*
X157597676Y-136928571D02*
X157788152Y-136880952D01*
X157788152Y-136880952D02*
X158121485Y-136880952D01*
X158121485Y-136880952D02*
X158311961Y-136928571D01*
X158311961Y-136928571D02*
X158407200Y-137023809D01*
X158407200Y-137023809D02*
X158454819Y-137119047D01*
X158454819Y-137119047D02*
X158454819Y-137309523D01*
X157454819Y-136595237D02*
X157454819Y-136023809D01*
X158454819Y-136309523D02*
X157454819Y-136309523D01*
X158550057Y-135928571D02*
X158550057Y-135166666D01*
X158359580Y-134357142D02*
X158407200Y-134404761D01*
X158407200Y-134404761D02*
X158454819Y-134547618D01*
X158454819Y-134547618D02*
X158454819Y-134642856D01*
X158454819Y-134642856D02*
X158407200Y-134785713D01*
X158407200Y-134785713D02*
X158311961Y-134880951D01*
X158311961Y-134880951D02*
X158216723Y-134928570D01*
X158216723Y-134928570D02*
X158026247Y-134976189D01*
X158026247Y-134976189D02*
X157883390Y-134976189D01*
X157883390Y-134976189D02*
X157692914Y-134928570D01*
X157692914Y-134928570D02*
X157597676Y-134880951D01*
X157597676Y-134880951D02*
X157502438Y-134785713D01*
X157502438Y-134785713D02*
X157454819Y-134642856D01*
X157454819Y-134642856D02*
X157454819Y-134547618D01*
X157454819Y-134547618D02*
X157502438Y-134404761D01*
X157502438Y-134404761D02*
X157550057Y-134357142D01*
X158454819Y-133499999D02*
X157931009Y-133499999D01*
X157931009Y-133499999D02*
X157835771Y-133547618D01*
X157835771Y-133547618D02*
X157788152Y-133642856D01*
X157788152Y-133642856D02*
X157788152Y-133833332D01*
X157788152Y-133833332D02*
X157835771Y-133928570D01*
X158407200Y-133499999D02*
X158454819Y-133595237D01*
X158454819Y-133595237D02*
X158454819Y-133833332D01*
X158454819Y-133833332D02*
X158407200Y-133928570D01*
X158407200Y-133928570D02*
X158311961Y-133976189D01*
X158311961Y-133976189D02*
X158216723Y-133976189D01*
X158216723Y-133976189D02*
X158121485Y-133928570D01*
X158121485Y-133928570D02*
X158073866Y-133833332D01*
X158073866Y-133833332D02*
X158073866Y-133595237D01*
X158073866Y-133595237D02*
X158026247Y-133499999D01*
X158454819Y-133023808D02*
X157788152Y-133023808D01*
X157978628Y-133023808D02*
X157883390Y-132976189D01*
X157883390Y-132976189D02*
X157835771Y-132928570D01*
X157835771Y-132928570D02*
X157788152Y-132833332D01*
X157788152Y-132833332D02*
X157788152Y-132738094D01*
X158454819Y-131976189D02*
X157454819Y-131976189D01*
X158407200Y-131976189D02*
X158454819Y-132071427D01*
X158454819Y-132071427D02*
X158454819Y-132261903D01*
X158454819Y-132261903D02*
X158407200Y-132357141D01*
X158407200Y-132357141D02*
X158359580Y-132404760D01*
X158359580Y-132404760D02*
X158264342Y-132452379D01*
X158264342Y-132452379D02*
X157978628Y-132452379D01*
X157978628Y-132452379D02*
X157883390Y-132404760D01*
X157883390Y-132404760D02*
X157835771Y-132357141D01*
X157835771Y-132357141D02*
X157788152Y-132261903D01*
X157788152Y-132261903D02*
X157788152Y-132071427D01*
X157788152Y-132071427D02*
X157835771Y-131976189D01*
X158454819Y-131499998D02*
X157454819Y-131499998D01*
X158454819Y-130928570D02*
X157883390Y-131357141D01*
X157454819Y-130928570D02*
X158026247Y-131499998D01*
X157931009Y-130166665D02*
X157978628Y-130023808D01*
X157978628Y-130023808D02*
X158026247Y-129976189D01*
X158026247Y-129976189D02*
X158121485Y-129928570D01*
X158121485Y-129928570D02*
X158264342Y-129928570D01*
X158264342Y-129928570D02*
X158359580Y-129976189D01*
X158359580Y-129976189D02*
X158407200Y-130023808D01*
X158407200Y-130023808D02*
X158454819Y-130119046D01*
X158454819Y-130119046D02*
X158454819Y-130499998D01*
X158454819Y-130499998D02*
X157454819Y-130499998D01*
X157454819Y-130499998D02*
X157454819Y-130166665D01*
X157454819Y-130166665D02*
X157502438Y-130071427D01*
X157502438Y-130071427D02*
X157550057Y-130023808D01*
X157550057Y-130023808D02*
X157645295Y-129976189D01*
X157645295Y-129976189D02*
X157740533Y-129976189D01*
X157740533Y-129976189D02*
X157835771Y-130023808D01*
X157835771Y-130023808D02*
X157883390Y-130071427D01*
X157883390Y-130071427D02*
X157931009Y-130166665D01*
X157931009Y-130166665D02*
X157931009Y-130499998D01*
M02*
