%TF.GenerationSoftware,KiCad,Pcbnew,10.0.6*%
%TF.CreationDate,2026-09-07T09:02:58-04:00*%
%TF.ProjectId,reticulum-hat,72657469-6375-46c7-956d-2d6861742e6b,v1.0*%
%TF.SameCoordinates,Original*%
%TF.FileFunction,Copper,L2,Bot*%
%TF.FilePolarity,Positive*%
%FSLAX46Y46*%
G04 Gerber Fmt 4.6, Leading zero omitted, Abs format (unit mm)*
G04 Created by KiCad (PCBNEW 10.0.6) date 2026-09-07 09:02:58*
%MOMM*%
%LPD*%
G01*
G04 APERTURE LIST*
%TA.AperFunction,SMDPad,CuDef*%
%ADD10R,1.800000X2.000000*%
%TD*%
%TA.AperFunction,ComponentPad*%
%ADD11C,1.700000*%
%TD*%
%TA.AperFunction,ComponentPad*%
%ADD12R,1.700000X1.700000*%
%TD*%
%TA.AperFunction,ComponentPad*%
%ADD13C,1.600000*%
%TD*%
%TA.AperFunction,ComponentPad*%
%ADD14R,1.600000X1.600000*%
%TD*%
%TA.AperFunction,ViaPad*%
%ADD15C,0.600000*%
%TD*%
G04 APERTURE END LIST*
D10*
%TO.P,J_SMA,2*%
%TO.N,GND*%
X150500000Y-99500000D03*
X145500000Y-99500000D03*
%TD*%
D11*
%TO.P,J_PI,1*%
%TO.N,+3.3V*%
X108370000Y-145730000D03*
%TO.P,J_PI,2*%
%TO.N,+5V*%
X108370000Y-148270000D03*
%TO.P,J_PI,3*%
%TO.N,NET_I2C_SDA*%
X110910000Y-145730000D03*
%TO.P,J_PI,4*%
%TO.N,+5V*%
X110910000Y-148270000D03*
%TO.P,J_PI,5*%
%TO.N,NET_I2C_SCL*%
X113450000Y-145730000D03*
%TO.P,J_PI,6*%
%TO.N,GND*%
X113450000Y-148270000D03*
%TO.P,J_PI,7*%
%TO.N,NET_LCD_RST*%
X115990000Y-145730000D03*
%TO.P,J_PI,8*%
%TO.N,NET_HOST_TX*%
X115990000Y-148270000D03*
%TO.P,J_PI,9*%
%TO.N,GND*%
X118530000Y-145730000D03*
%TO.P,J_PI,10*%
%TO.N,NET_HOST_RX*%
X118530000Y-148270000D03*
%TO.P,J_PI,11*%
%TO.N,NET_LCD_DC*%
X121070000Y-145730000D03*
%TO.P,J_PI,12*%
%TO.N,NET_LCD_BL*%
X121070000Y-148270000D03*
%TO.P,J_PI,13*%
%TO.N,NET_LORA_RST*%
X123610000Y-145730000D03*
%TO.P,J_PI,14*%
%TO.N,GND*%
X123610000Y-148270000D03*
%TO.P,J_PI,15*%
%TO.N,NET_LORA_DIO1*%
X126150000Y-145730000D03*
%TO.P,J_PI,16*%
%TO.N,NET_CRP_IO0*%
X126150000Y-148270000D03*
%TO.P,J_PI,17*%
%TO.N,+3.3V*%
X128690000Y-145730000D03*
%TO.P,J_PI,18*%
%TO.N,NET_CRP_IRQ*%
X128690000Y-148270000D03*
%TO.P,J_PI,19*%
%TO.N,NET_LORA_MOSI*%
X131230000Y-145730000D03*
%TO.P,J_PI,20*%
%TO.N,GND*%
X131230000Y-148270000D03*
%TO.P,J_PI,21*%
%TO.N,NET_LORA_MISO*%
X133770000Y-145730000D03*
%TO.P,J_PI,22*%
%TO.N,NET_LORA_BUSY*%
X133770000Y-148270000D03*
%TO.P,J_PI,23*%
%TO.N,NET_LORA_SCK*%
X136310000Y-145730000D03*
%TO.P,J_PI,24*%
%TO.N,NET_LORA_NSS*%
X136310000Y-148270000D03*
%TO.P,J_PI,25*%
%TO.N,GND*%
X138850000Y-145730000D03*
%TO.P,J_PI,26*%
%TO.N,NET_LCD_CS*%
X138850000Y-148270000D03*
%TO.P,J_PI,35*%
%TO.N,NET_CRP_IO1*%
X150280000Y-145730000D03*
%TO.P,J_PI,36*%
%TO.N,NET_CRP_IO0*%
X150280000Y-148270000D03*
%TO.P,J_PI,37*%
%TO.N,NET_CRP_IO2*%
X152820000Y-145730000D03*
%TO.P,J_PI,38*%
%TO.N,NET_CRP_CS*%
X152820000Y-148270000D03*
%TO.P,J_PI,39*%
%TO.N,GND*%
X155360000Y-145730000D03*
%TO.P,J_PI,40*%
%TO.N,NET_CRP_SCLK*%
X155360000Y-148270000D03*
%TD*%
D12*
%TO.P,J_MCU_L,1*%
%TO.N,+3.3V*%
X123000000Y-106950000D03*
D11*
%TO.P,J_MCU_L,2*%
%TO.N,NET_CRP_RST*%
X123000000Y-109490000D03*
%TO.P,J_MCU_L,3*%
%TO.N,NET_CRP_IO0*%
X123000000Y-112030000D03*
%TO.P,J_MCU_L,4*%
%TO.N,NET_CRP_IO1*%
X123000000Y-114570000D03*
%TO.P,J_MCU_L,5*%
%TO.N,NET_CRP_IO2*%
X123000000Y-117110000D03*
%TO.P,J_MCU_L,6*%
%TO.N,NET_CRP_IO3*%
X123000000Y-119650000D03*
%TO.P,J_MCU_L,7*%
%TO.N,NET_CRP_SCLK*%
X123000000Y-122190000D03*
%TO.P,J_MCU_L,8*%
%TO.N,NET_CRP_CS*%
X123000000Y-124730000D03*
%TO.P,J_MCU_L,9*%
%TO.N,NET_CRP_IRQ*%
X123000000Y-127270000D03*
%TO.P,J_MCU_L,10*%
%TO.N,NET_LORA_SCK*%
X123000000Y-129810000D03*
%TO.P,J_MCU_L,11*%
%TO.N,NET_LORA_MOSI*%
X123000000Y-132350000D03*
%TO.P,J_MCU_L,12*%
%TO.N,NET_LORA_MISO*%
X123000000Y-134890000D03*
%TO.P,J_MCU_L,13*%
%TO.N,NET_LORA_NSS*%
X123000000Y-137430000D03*
%TO.P,J_MCU_L,14*%
%TO.N,NET_LORA_BUSY*%
X123000000Y-139970000D03*
%TO.P,J_MCU_L,15*%
%TO.N,NET_LORA_DIO1*%
X123000000Y-142510000D03*
%TO.P,J_MCU_L,16*%
%TO.N,NET_LORA_RST*%
X123000000Y-145050000D03*
%TD*%
D12*
%TO.P,J_MCU_R,1*%
%TO.N,GND*%
X135000000Y-106950000D03*
D11*
%TO.P,J_MCU_R,2*%
%TO.N,+5V*%
X135000000Y-109490000D03*
%TO.P,J_MCU_R,3*%
%TO.N,NET_I2C_SDA*%
X135000000Y-112030000D03*
%TO.P,J_MCU_R,4*%
%TO.N,NET_I2C_SCL*%
X135000000Y-114570000D03*
%TO.P,J_MCU_R,5*%
%TO.N,NET_LCD_CS*%
X135000000Y-117110000D03*
%TO.P,J_MCU_R,6*%
%TO.N,NET_LCD_DC*%
X135000000Y-119650000D03*
%TO.P,J_MCU_R,7*%
%TO.N,NET_LCD_RST*%
X135000000Y-122190000D03*
%TO.P,J_MCU_R,8*%
%TO.N,NET_LCD_BL*%
X135000000Y-124730000D03*
%TO.P,J_MCU_R,9*%
%TO.N,NET_HOST_TX*%
X135000000Y-127270000D03*
%TO.P,J_MCU_R,10*%
%TO.N,NET_HOST_RX*%
X135000000Y-129810000D03*
%TD*%
D12*
%TO.P,J_CRYPTO,1*%
%TO.N,NET_CRP_SCLK*%
X158730000Y-114920000D03*
D11*
%TO.P,J_CRYPTO,2*%
%TO.N,NET_CRP_CS*%
X161270000Y-114920000D03*
%TO.P,J_CRYPTO,3*%
%TO.N,NET_CRP_IO0*%
X158730000Y-117460000D03*
%TO.P,J_CRYPTO,4*%
%TO.N,NET_CRP_IO1*%
X161270000Y-117460000D03*
%TO.P,J_CRYPTO,5*%
%TO.N,NET_CRP_IO2*%
X158730000Y-120000000D03*
%TO.P,J_CRYPTO,6*%
%TO.N,NET_CRP_IO3*%
X161270000Y-120000000D03*
%TO.P,J_CRYPTO,7*%
%TO.N,NET_CRP_IRQ*%
X158730000Y-122540000D03*
%TO.P,J_CRYPTO,8*%
%TO.N,NET_CRP_RST*%
X161270000Y-122540000D03*
%TO.P,J_CRYPTO,9*%
%TO.N,+3.3V*%
X158730000Y-125080000D03*
%TO.P,J_CRYPTO,10*%
%TO.N,GND*%
X161270000Y-125080000D03*
%TD*%
D13*
%TO.P,J_USB,SH1*%
%TO.N,GND*%
X102500000Y-122000000D03*
%TO.P,J_USB,SH2*%
X102500000Y-114000000D03*
%TD*%
D14*
%TO.P,J_BAT,1*%
%TO.N,VBAT*%
X104000000Y-134000000D03*
D13*
%TO.P,J_BAT,2*%
%TO.N,GND*%
X104000000Y-132000000D03*
%TD*%
D15*
%TO.N,GND*%
X146300000Y-102500000D03*
X149700000Y-102500000D03*
X146300000Y-104500000D03*
X149700000Y-104500000D03*
X146300000Y-106500000D03*
X149700000Y-106500000D03*
%TD*%
M02*
