%TF.GenerationSoftware,KiCad,Pcbnew,10.0.6*%
%TF.CreationDate,2026-09-07T09:02:58-04:00*%
%TF.ProjectId,reticulum-hat,72657469-6375-46c7-956d-2d6861742e6b,v1.0*%
%TF.SameCoordinates,Original*%
%TF.FileFunction,Legend,Top*%
%TF.FilePolarity,Positive*%
%FSLAX46Y46*%
G04 Gerber Fmt 4.6, Leading zero omitted, Abs format (unit mm)*
G04 Created by KiCad (PCBNEW 10.0.6) date 2026-09-07 09:02:58*
%MOMM*%
%LPD*%
G01*
G04 APERTURE LIST*
%ADD10C,0.150000*%
G04 APERTURE END LIST*
D10*
X146285714Y-103454819D02*
X146285714Y-104169104D01*
X146285714Y-104169104D02*
X146238095Y-104311961D01*
X146238095Y-104311961D02*
X146142857Y-104407200D01*
X146142857Y-104407200D02*
X146000000Y-104454819D01*
X146000000Y-104454819D02*
X145904762Y-104454819D01*
X146523810Y-104550057D02*
X147285714Y-104550057D01*
X147476191Y-104407200D02*
X147619048Y-104454819D01*
X147619048Y-104454819D02*
X147857143Y-104454819D01*
X147857143Y-104454819D02*
X147952381Y-104407200D01*
X147952381Y-104407200D02*
X148000000Y-104359580D01*
X148000000Y-104359580D02*
X148047619Y-104264342D01*
X148047619Y-104264342D02*
X148047619Y-104169104D01*
X148047619Y-104169104D02*
X148000000Y-104073866D01*
X148000000Y-104073866D02*
X147952381Y-104026247D01*
X147952381Y-104026247D02*
X147857143Y-103978628D01*
X147857143Y-103978628D02*
X147666667Y-103931009D01*
X147666667Y-103931009D02*
X147571429Y-103883390D01*
X147571429Y-103883390D02*
X147523810Y-103835771D01*
X147523810Y-103835771D02*
X147476191Y-103740533D01*
X147476191Y-103740533D02*
X147476191Y-103645295D01*
X147476191Y-103645295D02*
X147523810Y-103550057D01*
X147523810Y-103550057D02*
X147571429Y-103502438D01*
X147571429Y-103502438D02*
X147666667Y-103454819D01*
X147666667Y-103454819D02*
X147904762Y-103454819D01*
X147904762Y-103454819D02*
X148047619Y-103502438D01*
X148476191Y-104454819D02*
X148476191Y-103454819D01*
X148476191Y-103454819D02*
X148809524Y-104169104D01*
X148809524Y-104169104D02*
X149142857Y-103454819D01*
X149142857Y-103454819D02*
X149142857Y-104454819D01*
X149571429Y-104169104D02*
X150047619Y-104169104D01*
X149476191Y-104454819D02*
X149809524Y-103454819D01*
X149809524Y-103454819D02*
X150142857Y-104454819D01*
X145476190Y-105454819D02*
X145476190Y-106264342D01*
X145476190Y-106264342D02*
X145523809Y-106359580D01*
X145523809Y-106359580D02*
X145571428Y-106407200D01*
X145571428Y-106407200D02*
X145666666Y-106454819D01*
X145666666Y-106454819D02*
X145857142Y-106454819D01*
X145857142Y-106454819D02*
X145952380Y-106407200D01*
X145952380Y-106407200D02*
X145999999Y-106359580D01*
X145999999Y-106359580D02*
X146047618Y-106264342D01*
X146047618Y-106264342D02*
X146047618Y-105454819D01*
X146285714Y-106550057D02*
X147047618Y-106550057D01*
X147761904Y-106454819D02*
X147285714Y-106454819D01*
X147285714Y-106454819D02*
X147285714Y-105454819D01*
X148285714Y-105454819D02*
X148476190Y-105454819D01*
X148476190Y-105454819D02*
X148571428Y-105502438D01*
X148571428Y-105502438D02*
X148666666Y-105597676D01*
X148666666Y-105597676D02*
X148714285Y-105788152D01*
X148714285Y-105788152D02*
X148714285Y-106121485D01*
X148714285Y-106121485D02*
X148666666Y-106311961D01*
X148666666Y-106311961D02*
X148571428Y-106407200D01*
X148571428Y-106407200D02*
X148476190Y-106454819D01*
X148476190Y-106454819D02*
X148285714Y-106454819D01*
X148285714Y-106454819D02*
X148190476Y-106407200D01*
X148190476Y-106407200D02*
X148095238Y-106311961D01*
X148095238Y-106311961D02*
X148047619Y-106121485D01*
X148047619Y-106121485D02*
X148047619Y-105788152D01*
X148047619Y-105788152D02*
X148095238Y-105597676D01*
X148095238Y-105597676D02*
X148190476Y-105502438D01*
X148190476Y-105502438D02*
X148285714Y-105454819D01*
X149714285Y-106454819D02*
X149380952Y-105978628D01*
X149142857Y-106454819D02*
X149142857Y-105454819D01*
X149142857Y-105454819D02*
X149523809Y-105454819D01*
X149523809Y-105454819D02*
X149619047Y-105502438D01*
X149619047Y-105502438D02*
X149666666Y-105550057D01*
X149666666Y-105550057D02*
X149714285Y-105645295D01*
X149714285Y-105645295D02*
X149714285Y-105788152D01*
X149714285Y-105788152D02*
X149666666Y-105883390D01*
X149666666Y-105883390D02*
X149619047Y-105931009D01*
X149619047Y-105931009D02*
X149523809Y-105978628D01*
X149523809Y-105978628D02*
X149142857Y-105978628D01*
X150095238Y-106169104D02*
X150571428Y-106169104D01*
X150000000Y-106454819D02*
X150333333Y-105454819D01*
X150333333Y-105454819D02*
X150666666Y-106454819D01*
X131523809Y-142954819D02*
X131523809Y-143669104D01*
X131523809Y-143669104D02*
X131476190Y-143811961D01*
X131476190Y-143811961D02*
X131380952Y-143907200D01*
X131380952Y-143907200D02*
X131238095Y-143954819D01*
X131238095Y-143954819D02*
X131142857Y-143954819D01*
X131761905Y-144050057D02*
X132523809Y-144050057D01*
X132761905Y-143954819D02*
X132761905Y-142954819D01*
X132761905Y-142954819D02*
X133142857Y-142954819D01*
X133142857Y-142954819D02*
X133238095Y-143002438D01*
X133238095Y-143002438D02*
X133285714Y-143050057D01*
X133285714Y-143050057D02*
X133333333Y-143145295D01*
X133333333Y-143145295D02*
X133333333Y-143288152D01*
X133333333Y-143288152D02*
X133285714Y-143383390D01*
X133285714Y-143383390D02*
X133238095Y-143431009D01*
X133238095Y-143431009D02*
X133142857Y-143478628D01*
X133142857Y-143478628D02*
X132761905Y-143478628D01*
X133761905Y-143954819D02*
X133761905Y-142954819D01*
X120380952Y-123454819D02*
X120380952Y-124169104D01*
X120380952Y-124169104D02*
X120333333Y-124311961D01*
X120333333Y-124311961D02*
X120238095Y-124407200D01*
X120238095Y-124407200D02*
X120095238Y-124454819D01*
X120095238Y-124454819D02*
X120000000Y-124454819D01*
X120619048Y-124550057D02*
X121380952Y-124550057D01*
X121619048Y-124454819D02*
X121619048Y-123454819D01*
X121619048Y-123454819D02*
X121952381Y-124169104D01*
X121952381Y-124169104D02*
X122285714Y-123454819D01*
X122285714Y-123454819D02*
X122285714Y-124454819D01*
X123333333Y-124359580D02*
X123285714Y-124407200D01*
X123285714Y-124407200D02*
X123142857Y-124454819D01*
X123142857Y-124454819D02*
X123047619Y-124454819D01*
X123047619Y-124454819D02*
X122904762Y-124407200D01*
X122904762Y-124407200D02*
X122809524Y-124311961D01*
X122809524Y-124311961D02*
X122761905Y-124216723D01*
X122761905Y-124216723D02*
X122714286Y-124026247D01*
X122714286Y-124026247D02*
X122714286Y-123883390D01*
X122714286Y-123883390D02*
X122761905Y-123692914D01*
X122761905Y-123692914D02*
X122809524Y-123597676D01*
X122809524Y-123597676D02*
X122904762Y-123502438D01*
X122904762Y-123502438D02*
X123047619Y-123454819D01*
X123047619Y-123454819D02*
X123142857Y-123454819D01*
X123142857Y-123454819D02*
X123285714Y-123502438D01*
X123285714Y-123502438D02*
X123333333Y-123550057D01*
X123761905Y-123454819D02*
X123761905Y-124264342D01*
X123761905Y-124264342D02*
X123809524Y-124359580D01*
X123809524Y-124359580D02*
X123857143Y-124407200D01*
X123857143Y-124407200D02*
X123952381Y-124454819D01*
X123952381Y-124454819D02*
X124142857Y-124454819D01*
X124142857Y-124454819D02*
X124238095Y-124407200D01*
X124238095Y-124407200D02*
X124285714Y-124359580D01*
X124285714Y-124359580D02*
X124333333Y-124264342D01*
X124333333Y-124264342D02*
X124333333Y-123454819D01*
X124571429Y-124550057D02*
X125333333Y-124550057D01*
X126047619Y-124454819D02*
X125571429Y-124454819D01*
X125571429Y-124454819D02*
X125571429Y-123454819D01*
X132285714Y-127454819D02*
X132285714Y-128169104D01*
X132285714Y-128169104D02*
X132238095Y-128311961D01*
X132238095Y-128311961D02*
X132142857Y-128407200D01*
X132142857Y-128407200D02*
X132000000Y-128454819D01*
X132000000Y-128454819D02*
X131904762Y-128454819D01*
X132523810Y-128550057D02*
X133285714Y-128550057D01*
X133523810Y-128454819D02*
X133523810Y-127454819D01*
X133523810Y-127454819D02*
X133857143Y-128169104D01*
X133857143Y-128169104D02*
X134190476Y-127454819D01*
X134190476Y-127454819D02*
X134190476Y-128454819D01*
X135238095Y-128359580D02*
X135190476Y-128407200D01*
X135190476Y-128407200D02*
X135047619Y-128454819D01*
X135047619Y-128454819D02*
X134952381Y-128454819D01*
X134952381Y-128454819D02*
X134809524Y-128407200D01*
X134809524Y-128407200D02*
X134714286Y-128311961D01*
X134714286Y-128311961D02*
X134666667Y-128216723D01*
X134666667Y-128216723D02*
X134619048Y-128026247D01*
X134619048Y-128026247D02*
X134619048Y-127883390D01*
X134619048Y-127883390D02*
X134666667Y-127692914D01*
X134666667Y-127692914D02*
X134714286Y-127597676D01*
X134714286Y-127597676D02*
X134809524Y-127502438D01*
X134809524Y-127502438D02*
X134952381Y-127454819D01*
X134952381Y-127454819D02*
X135047619Y-127454819D01*
X135047619Y-127454819D02*
X135190476Y-127502438D01*
X135190476Y-127502438D02*
X135238095Y-127550057D01*
X135666667Y-127454819D02*
X135666667Y-128264342D01*
X135666667Y-128264342D02*
X135714286Y-128359580D01*
X135714286Y-128359580D02*
X135761905Y-128407200D01*
X135761905Y-128407200D02*
X135857143Y-128454819D01*
X135857143Y-128454819D02*
X136047619Y-128454819D01*
X136047619Y-128454819D02*
X136142857Y-128407200D01*
X136142857Y-128407200D02*
X136190476Y-128359580D01*
X136190476Y-128359580D02*
X136238095Y-128264342D01*
X136238095Y-128264342D02*
X136238095Y-127454819D01*
X136476191Y-128550057D02*
X137238095Y-128550057D01*
X138047619Y-128454819D02*
X137714286Y-127978628D01*
X137476191Y-128454819D02*
X137476191Y-127454819D01*
X137476191Y-127454819D02*
X137857143Y-127454819D01*
X137857143Y-127454819D02*
X137952381Y-127502438D01*
X137952381Y-127502438D02*
X138000000Y-127550057D01*
X138000000Y-127550057D02*
X138047619Y-127645295D01*
X138047619Y-127645295D02*
X138047619Y-127788152D01*
X138047619Y-127788152D02*
X138000000Y-127883390D01*
X138000000Y-127883390D02*
X137952381Y-127931009D01*
X137952381Y-127931009D02*
X137857143Y-127978628D01*
X137857143Y-127978628D02*
X137476191Y-127978628D01*
X156928571Y-115954819D02*
X156928571Y-116669104D01*
X156928571Y-116669104D02*
X156880952Y-116811961D01*
X156880952Y-116811961D02*
X156785714Y-116907200D01*
X156785714Y-116907200D02*
X156642857Y-116954819D01*
X156642857Y-116954819D02*
X156547619Y-116954819D01*
X157166667Y-117050057D02*
X157928571Y-117050057D01*
X158738095Y-116859580D02*
X158690476Y-116907200D01*
X158690476Y-116907200D02*
X158547619Y-116954819D01*
X158547619Y-116954819D02*
X158452381Y-116954819D01*
X158452381Y-116954819D02*
X158309524Y-116907200D01*
X158309524Y-116907200D02*
X158214286Y-116811961D01*
X158214286Y-116811961D02*
X158166667Y-116716723D01*
X158166667Y-116716723D02*
X158119048Y-116526247D01*
X158119048Y-116526247D02*
X158119048Y-116383390D01*
X158119048Y-116383390D02*
X158166667Y-116192914D01*
X158166667Y-116192914D02*
X158214286Y-116097676D01*
X158214286Y-116097676D02*
X158309524Y-116002438D01*
X158309524Y-116002438D02*
X158452381Y-115954819D01*
X158452381Y-115954819D02*
X158547619Y-115954819D01*
X158547619Y-115954819D02*
X158690476Y-116002438D01*
X158690476Y-116002438D02*
X158738095Y-116050057D01*
X159738095Y-116954819D02*
X159404762Y-116478628D01*
X159166667Y-116954819D02*
X159166667Y-115954819D01*
X159166667Y-115954819D02*
X159547619Y-115954819D01*
X159547619Y-115954819D02*
X159642857Y-116002438D01*
X159642857Y-116002438D02*
X159690476Y-116050057D01*
X159690476Y-116050057D02*
X159738095Y-116145295D01*
X159738095Y-116145295D02*
X159738095Y-116288152D01*
X159738095Y-116288152D02*
X159690476Y-116383390D01*
X159690476Y-116383390D02*
X159642857Y-116431009D01*
X159642857Y-116431009D02*
X159547619Y-116478628D01*
X159547619Y-116478628D02*
X159166667Y-116478628D01*
X160357143Y-116478628D02*
X160357143Y-116954819D01*
X160023810Y-115954819D02*
X160357143Y-116478628D01*
X160357143Y-116478628D02*
X160690476Y-115954819D01*
X161023810Y-116954819D02*
X161023810Y-115954819D01*
X161023810Y-115954819D02*
X161404762Y-115954819D01*
X161404762Y-115954819D02*
X161500000Y-116002438D01*
X161500000Y-116002438D02*
X161547619Y-116050057D01*
X161547619Y-116050057D02*
X161595238Y-116145295D01*
X161595238Y-116145295D02*
X161595238Y-116288152D01*
X161595238Y-116288152D02*
X161547619Y-116383390D01*
X161547619Y-116383390D02*
X161500000Y-116431009D01*
X161500000Y-116431009D02*
X161404762Y-116478628D01*
X161404762Y-116478628D02*
X161023810Y-116478628D01*
X161880953Y-115954819D02*
X162452381Y-115954819D01*
X162166667Y-116954819D02*
X162166667Y-115954819D01*
X162976191Y-115954819D02*
X163166667Y-115954819D01*
X163166667Y-115954819D02*
X163261905Y-116002438D01*
X163261905Y-116002438D02*
X163357143Y-116097676D01*
X163357143Y-116097676D02*
X163404762Y-116288152D01*
X163404762Y-116288152D02*
X163404762Y-116621485D01*
X163404762Y-116621485D02*
X163357143Y-116811961D01*
X163357143Y-116811961D02*
X163261905Y-116907200D01*
X163261905Y-116907200D02*
X163166667Y-116954819D01*
X163166667Y-116954819D02*
X162976191Y-116954819D01*
X162976191Y-116954819D02*
X162880953Y-116907200D01*
X162880953Y-116907200D02*
X162785715Y-116811961D01*
X162785715Y-116811961D02*
X162738096Y-116621485D01*
X162738096Y-116621485D02*
X162738096Y-116288152D01*
X162738096Y-116288152D02*
X162785715Y-116097676D01*
X162785715Y-116097676D02*
X162880953Y-116002438D01*
X162880953Y-116002438D02*
X162976191Y-115954819D01*
X97954819Y-119738095D02*
X98669104Y-119738095D01*
X98669104Y-119738095D02*
X98811961Y-119785714D01*
X98811961Y-119785714D02*
X98907200Y-119880952D01*
X98907200Y-119880952D02*
X98954819Y-120023809D01*
X98954819Y-120023809D02*
X98954819Y-120119047D01*
X99050057Y-119500000D02*
X99050057Y-118738095D01*
X97954819Y-118499999D02*
X98764342Y-118499999D01*
X98764342Y-118499999D02*
X98859580Y-118452380D01*
X98859580Y-118452380D02*
X98907200Y-118404761D01*
X98907200Y-118404761D02*
X98954819Y-118309523D01*
X98954819Y-118309523D02*
X98954819Y-118119047D01*
X98954819Y-118119047D02*
X98907200Y-118023809D01*
X98907200Y-118023809D02*
X98859580Y-117976190D01*
X98859580Y-117976190D02*
X98764342Y-117928571D01*
X98764342Y-117928571D02*
X97954819Y-117928571D01*
X98907200Y-117499999D02*
X98954819Y-117357142D01*
X98954819Y-117357142D02*
X98954819Y-117119047D01*
X98954819Y-117119047D02*
X98907200Y-117023809D01*
X98907200Y-117023809D02*
X98859580Y-116976190D01*
X98859580Y-116976190D02*
X98764342Y-116928571D01*
X98764342Y-116928571D02*
X98669104Y-116928571D01*
X98669104Y-116928571D02*
X98573866Y-116976190D01*
X98573866Y-116976190D02*
X98526247Y-117023809D01*
X98526247Y-117023809D02*
X98478628Y-117119047D01*
X98478628Y-117119047D02*
X98431009Y-117309523D01*
X98431009Y-117309523D02*
X98383390Y-117404761D01*
X98383390Y-117404761D02*
X98335771Y-117452380D01*
X98335771Y-117452380D02*
X98240533Y-117499999D01*
X98240533Y-117499999D02*
X98145295Y-117499999D01*
X98145295Y-117499999D02*
X98050057Y-117452380D01*
X98050057Y-117452380D02*
X98002438Y-117404761D01*
X98002438Y-117404761D02*
X97954819Y-117309523D01*
X97954819Y-117309523D02*
X97954819Y-117071428D01*
X97954819Y-117071428D02*
X98002438Y-116928571D01*
X98431009Y-116166666D02*
X98478628Y-116023809D01*
X98478628Y-116023809D02*
X98526247Y-115976190D01*
X98526247Y-115976190D02*
X98621485Y-115928571D01*
X98621485Y-115928571D02*
X98764342Y-115928571D01*
X98764342Y-115928571D02*
X98859580Y-115976190D01*
X98859580Y-115976190D02*
X98907200Y-116023809D01*
X98907200Y-116023809D02*
X98954819Y-116119047D01*
X98954819Y-116119047D02*
X98954819Y-116499999D01*
X98954819Y-116499999D02*
X97954819Y-116499999D01*
X97954819Y-116499999D02*
X97954819Y-116166666D01*
X97954819Y-116166666D02*
X98002438Y-116071428D01*
X98002438Y-116071428D02*
X98050057Y-116023809D01*
X98050057Y-116023809D02*
X98145295Y-115976190D01*
X98145295Y-115976190D02*
X98240533Y-115976190D01*
X98240533Y-115976190D02*
X98335771Y-116023809D01*
X98335771Y-116023809D02*
X98383390Y-116071428D01*
X98383390Y-116071428D02*
X98431009Y-116166666D01*
X98431009Y-116166666D02*
X98431009Y-116499999D01*
X100954819Y-134547619D02*
X101669104Y-134547619D01*
X101669104Y-134547619D02*
X101811961Y-134595238D01*
X101811961Y-134595238D02*
X101907200Y-134690476D01*
X101907200Y-134690476D02*
X101954819Y-134833333D01*
X101954819Y-134833333D02*
X101954819Y-134928571D01*
X102050057Y-134309524D02*
X102050057Y-133547619D01*
X101431009Y-132976190D02*
X101478628Y-132833333D01*
X101478628Y-132833333D02*
X101526247Y-132785714D01*
X101526247Y-132785714D02*
X101621485Y-132738095D01*
X101621485Y-132738095D02*
X101764342Y-132738095D01*
X101764342Y-132738095D02*
X101859580Y-132785714D01*
X101859580Y-132785714D02*
X101907200Y-132833333D01*
X101907200Y-132833333D02*
X101954819Y-132928571D01*
X101954819Y-132928571D02*
X101954819Y-133309523D01*
X101954819Y-133309523D02*
X100954819Y-133309523D01*
X100954819Y-133309523D02*
X100954819Y-132976190D01*
X100954819Y-132976190D02*
X101002438Y-132880952D01*
X101002438Y-132880952D02*
X101050057Y-132833333D01*
X101050057Y-132833333D02*
X101145295Y-132785714D01*
X101145295Y-132785714D02*
X101240533Y-132785714D01*
X101240533Y-132785714D02*
X101335771Y-132833333D01*
X101335771Y-132833333D02*
X101383390Y-132880952D01*
X101383390Y-132880952D02*
X101431009Y-132976190D01*
X101431009Y-132976190D02*
X101431009Y-133309523D01*
X101669104Y-132357142D02*
X101669104Y-131880952D01*
X101954819Y-132452380D02*
X100954819Y-132119047D01*
X100954819Y-132119047D02*
X101954819Y-131785714D01*
X100954819Y-131595237D02*
X100954819Y-131023809D01*
X101954819Y-131309523D02*
X100954819Y-131309523D01*
X109880952Y-127454819D02*
X109880952Y-128264342D01*
X109880952Y-128264342D02*
X109928571Y-128359580D01*
X109928571Y-128359580D02*
X109976190Y-128407200D01*
X109976190Y-128407200D02*
X110071428Y-128454819D01*
X110071428Y-128454819D02*
X110261904Y-128454819D01*
X110261904Y-128454819D02*
X110357142Y-128407200D01*
X110357142Y-128407200D02*
X110404761Y-128359580D01*
X110404761Y-128359580D02*
X110452380Y-128264342D01*
X110452380Y-128264342D02*
X110452380Y-127454819D01*
X110690476Y-128550057D02*
X111452380Y-128550057D01*
X112261904Y-128454819D02*
X111928571Y-127978628D01*
X111690476Y-128454819D02*
X111690476Y-127454819D01*
X111690476Y-127454819D02*
X112071428Y-127454819D01*
X112071428Y-127454819D02*
X112166666Y-127502438D01*
X112166666Y-127502438D02*
X112214285Y-127550057D01*
X112214285Y-127550057D02*
X112261904Y-127645295D01*
X112261904Y-127645295D02*
X112261904Y-127788152D01*
X112261904Y-127788152D02*
X112214285Y-127883390D01*
X112214285Y-127883390D02*
X112166666Y-127931009D01*
X112166666Y-127931009D02*
X112071428Y-127978628D01*
X112071428Y-127978628D02*
X111690476Y-127978628D01*
X112690476Y-127931009D02*
X113023809Y-127931009D01*
X113166666Y-128454819D02*
X112690476Y-128454819D01*
X112690476Y-128454819D02*
X112690476Y-127454819D01*
X112690476Y-127454819D02*
X113166666Y-127454819D01*
X114119047Y-127502438D02*
X114023809Y-127454819D01*
X114023809Y-127454819D02*
X113880952Y-127454819D01*
X113880952Y-127454819D02*
X113738095Y-127502438D01*
X113738095Y-127502438D02*
X113642857Y-127597676D01*
X113642857Y-127597676D02*
X113595238Y-127692914D01*
X113595238Y-127692914D02*
X113547619Y-127883390D01*
X113547619Y-127883390D02*
X113547619Y-128026247D01*
X113547619Y-128026247D02*
X113595238Y-128216723D01*
X113595238Y-128216723D02*
X113642857Y-128311961D01*
X113642857Y-128311961D02*
X113738095Y-128407200D01*
X113738095Y-128407200D02*
X113880952Y-128454819D01*
X113880952Y-128454819D02*
X113976190Y-128454819D01*
X113976190Y-128454819D02*
X114119047Y-128407200D01*
X114119047Y-128407200D02*
X114166666Y-128359580D01*
X114166666Y-128359580D02*
X114166666Y-128026247D01*
X114166666Y-128026247D02*
X113976190Y-128026247D01*
X109809524Y-110454819D02*
X109809524Y-111264342D01*
X109809524Y-111264342D02*
X109857143Y-111359580D01*
X109857143Y-111359580D02*
X109904762Y-111407200D01*
X109904762Y-111407200D02*
X110000000Y-111454819D01*
X110000000Y-111454819D02*
X110190476Y-111454819D01*
X110190476Y-111454819D02*
X110285714Y-111407200D01*
X110285714Y-111407200D02*
X110333333Y-111359580D01*
X110333333Y-111359580D02*
X110380952Y-111264342D01*
X110380952Y-111264342D02*
X110380952Y-110454819D01*
X110619048Y-111550057D02*
X111380952Y-111550057D01*
X112190476Y-111359580D02*
X112142857Y-111407200D01*
X112142857Y-111407200D02*
X112000000Y-111454819D01*
X112000000Y-111454819D02*
X111904762Y-111454819D01*
X111904762Y-111454819D02*
X111761905Y-111407200D01*
X111761905Y-111407200D02*
X111666667Y-111311961D01*
X111666667Y-111311961D02*
X111619048Y-111216723D01*
X111619048Y-111216723D02*
X111571429Y-111026247D01*
X111571429Y-111026247D02*
X111571429Y-110883390D01*
X111571429Y-110883390D02*
X111619048Y-110692914D01*
X111619048Y-110692914D02*
X111666667Y-110597676D01*
X111666667Y-110597676D02*
X111761905Y-110502438D01*
X111761905Y-110502438D02*
X111904762Y-110454819D01*
X111904762Y-110454819D02*
X112000000Y-110454819D01*
X112000000Y-110454819D02*
X112142857Y-110502438D01*
X112142857Y-110502438D02*
X112190476Y-110550057D01*
X112619048Y-111454819D02*
X112619048Y-110454819D01*
X112619048Y-110931009D02*
X113190476Y-110931009D01*
X113190476Y-111454819D02*
X113190476Y-110454819D01*
X114190476Y-110502438D02*
X114095238Y-110454819D01*
X114095238Y-110454819D02*
X113952381Y-110454819D01*
X113952381Y-110454819D02*
X113809524Y-110502438D01*
X113809524Y-110502438D02*
X113714286Y-110597676D01*
X113714286Y-110597676D02*
X113666667Y-110692914D01*
X113666667Y-110692914D02*
X113619048Y-110883390D01*
X113619048Y-110883390D02*
X113619048Y-111026247D01*
X113619048Y-111026247D02*
X113666667Y-111216723D01*
X113666667Y-111216723D02*
X113714286Y-111311961D01*
X113714286Y-111311961D02*
X113809524Y-111407200D01*
X113809524Y-111407200D02*
X113952381Y-111454819D01*
X113952381Y-111454819D02*
X114047619Y-111454819D01*
X114047619Y-111454819D02*
X114190476Y-111407200D01*
X114190476Y-111407200D02*
X114238095Y-111359580D01*
X114238095Y-111359580D02*
X114238095Y-111026247D01*
X114238095Y-111026247D02*
X114047619Y-111026247D01*
X110428571Y-120550057D02*
X110333333Y-120502438D01*
X110333333Y-120502438D02*
X110238095Y-120407200D01*
X110238095Y-120407200D02*
X110095238Y-120264342D01*
X110095238Y-120264342D02*
X110000000Y-120216723D01*
X110000000Y-120216723D02*
X109904762Y-120216723D01*
X109952381Y-120454819D02*
X109857143Y-120407200D01*
X109857143Y-120407200D02*
X109761905Y-120311961D01*
X109761905Y-120311961D02*
X109714286Y-120121485D01*
X109714286Y-120121485D02*
X109714286Y-119788152D01*
X109714286Y-119788152D02*
X109761905Y-119597676D01*
X109761905Y-119597676D02*
X109857143Y-119502438D01*
X109857143Y-119502438D02*
X109952381Y-119454819D01*
X109952381Y-119454819D02*
X110142857Y-119454819D01*
X110142857Y-119454819D02*
X110238095Y-119502438D01*
X110238095Y-119502438D02*
X110333333Y-119597676D01*
X110333333Y-119597676D02*
X110380952Y-119788152D01*
X110380952Y-119788152D02*
X110380952Y-120121485D01*
X110380952Y-120121485D02*
X110333333Y-120311961D01*
X110333333Y-120311961D02*
X110238095Y-120407200D01*
X110238095Y-120407200D02*
X110142857Y-120454819D01*
X110142857Y-120454819D02*
X109952381Y-120454819D01*
X110571429Y-120550057D02*
X111333333Y-120550057D01*
X111571429Y-120454819D02*
X111571429Y-119454819D01*
X111571429Y-119454819D02*
X111952381Y-119454819D01*
X111952381Y-119454819D02*
X112047619Y-119502438D01*
X112047619Y-119502438D02*
X112095238Y-119550057D01*
X112095238Y-119550057D02*
X112142857Y-119645295D01*
X112142857Y-119645295D02*
X112142857Y-119788152D01*
X112142857Y-119788152D02*
X112095238Y-119883390D01*
X112095238Y-119883390D02*
X112047619Y-119931009D01*
X112047619Y-119931009D02*
X111952381Y-119978628D01*
X111952381Y-119978628D02*
X111571429Y-119978628D01*
X112476191Y-119454819D02*
X112714286Y-120454819D01*
X112714286Y-120454819D02*
X112904762Y-119740533D01*
X112904762Y-119740533D02*
X113095238Y-120454819D01*
X113095238Y-120454819D02*
X113333334Y-119454819D01*
X114285714Y-120454819D02*
X113952381Y-119978628D01*
X113714286Y-120454819D02*
X113714286Y-119454819D01*
X113714286Y-119454819D02*
X114095238Y-119454819D01*
X114095238Y-119454819D02*
X114190476Y-119502438D01*
X114190476Y-119502438D02*
X114238095Y-119550057D01*
X114238095Y-119550057D02*
X114285714Y-119645295D01*
X114285714Y-119645295D02*
X114285714Y-119788152D01*
X114285714Y-119788152D02*
X114238095Y-119883390D01*
X114238095Y-119883390D02*
X114190476Y-119931009D01*
X114190476Y-119931009D02*
X114095238Y-119978628D01*
X114095238Y-119978628D02*
X113714286Y-119978628D01*
X161454819Y-140119047D02*
X162169104Y-140119047D01*
X162169104Y-140119047D02*
X162311961Y-140166666D01*
X162311961Y-140166666D02*
X162407200Y-140261904D01*
X162407200Y-140261904D02*
X162454819Y-140404761D01*
X162454819Y-140404761D02*
X162454819Y-140499999D01*
X162550057Y-139880952D02*
X162550057Y-139119047D01*
X162407200Y-138928570D02*
X162454819Y-138785713D01*
X162454819Y-138785713D02*
X162454819Y-138547618D01*
X162454819Y-138547618D02*
X162407200Y-138452380D01*
X162407200Y-138452380D02*
X162359580Y-138404761D01*
X162359580Y-138404761D02*
X162264342Y-138357142D01*
X162264342Y-138357142D02*
X162169104Y-138357142D01*
X162169104Y-138357142D02*
X162073866Y-138404761D01*
X162073866Y-138404761D02*
X162026247Y-138452380D01*
X162026247Y-138452380D02*
X161978628Y-138547618D01*
X161978628Y-138547618D02*
X161931009Y-138738094D01*
X161931009Y-138738094D02*
X161883390Y-138833332D01*
X161883390Y-138833332D02*
X161835771Y-138880951D01*
X161835771Y-138880951D02*
X161740533Y-138928570D01*
X161740533Y-138928570D02*
X161645295Y-138928570D01*
X161645295Y-138928570D02*
X161550057Y-138880951D01*
X161550057Y-138880951D02*
X161502438Y-138833332D01*
X161502438Y-138833332D02*
X161454819Y-138738094D01*
X161454819Y-138738094D02*
X161454819Y-138499999D01*
X161454819Y-138499999D02*
X161502438Y-138357142D01*
X161454819Y-138071427D02*
X161454819Y-137499999D01*
X162454819Y-137785713D02*
X161454819Y-137785713D01*
X161931009Y-137166665D02*
X161931009Y-136833332D01*
X162454819Y-136690475D02*
X162454819Y-137166665D01*
X162454819Y-137166665D02*
X161454819Y-137166665D01*
X161454819Y-137166665D02*
X161454819Y-136690475D01*
X162454819Y-136261903D02*
X161454819Y-136261903D01*
X161454819Y-136261903D02*
X162169104Y-135928570D01*
X162169104Y-135928570D02*
X161454819Y-135595237D01*
X161454819Y-135595237D02*
X162454819Y-135595237D01*
X162454819Y-135119046D02*
X161454819Y-135119046D01*
X161454819Y-135119046D02*
X162169104Y-134785713D01*
X162169104Y-134785713D02*
X161454819Y-134452380D01*
X161454819Y-134452380D02*
X162454819Y-134452380D01*
X162169104Y-134023808D02*
X162169104Y-133547618D01*
X162454819Y-134119046D02*
X161454819Y-133785713D01*
X161454819Y-133785713D02*
X162454819Y-133452380D01*
M02*
